<svg width="41" height="30" viewBox="0 0 41 30" fill="none" xmlns="http://www.w3.org/2000/svg">
    <g clip-path="url(#clip0_184_267)">
        <path d="M-0.000653395 6.98999C0.199778 6.32171 0.393298 5.6548 0.863276 5.10018C1.65809 4.15939 2.66716 3.67598 3.8974 3.66502C5.41929 3.65133 6.93981 3.66092 8.46171 3.66092C13.4932 3.66092 18.5248 3.65818 23.5563 3.66776C23.859 3.66776 24 3.61025 24.0553 3.28295C24.1769 2.56811 24.358 1.86149 24.5087 1.15213C24.6925 0.289391 25.0326 0.00592008 25.9075 0.00455066C26.6816 0.00318123 27.4557 -0.000927045 28.2298 0.00592008C28.9334 0.0113978 29.308 0.314041 29.4683 1.00149C29.6508 1.78617 29.8415 2.56948 29.9977 3.35964C30.0489 3.61573 30.1608 3.66092 30.3972 3.66913C31.275 3.70063 32.1721 3.65681 33.0236 3.82525C35.3472 4.28811 36.8373 5.73833 37.5547 7.94722C38.6121 11.201 39.6502 14.4616 40.6565 17.7318C41.3864 20.1009 40.9579 22.2591 39.2411 24.101C38.3702 25.0349 37.2934 25.6553 36.0286 25.9196C35.7467 25.9784 35.614 26.0907 35.5283 26.3783C34.9159 28.4325 33.5143 29.6786 31.3897 29.9525C29.3619 30.2141 27.7391 29.3897 26.6125 27.693C26.354 27.304 26.2061 26.8357 26.0472 26.3906C25.9725 26.1797 25.8882 26.1003 25.6601 26.1003C21.9763 26.1072 18.2925 26.1085 14.6101 26.0976C14.3337 26.0962 14.288 26.2332 14.2245 26.4386C13.4683 28.8775 11.3023 30.299 8.76028 29.9265C6.77946 29.6375 5.458 28.4749 4.818 26.5947C4.69083 26.2222 4.55675 26.0825 4.14068 26.0921C2.44046 26.1332 1.15356 25.4225 0.383622 23.8942C0.208072 23.5463 0.123752 23.1533 -0.00341797 22.7795C-0.000653395 17.5168 -0.000653395 12.2527 -0.000653395 6.98999ZM38.0136 16.6458C37.9155 16.3363 37.809 16.0789 37.7551 15.8105C37.6915 15.4928 37.534 15.4051 37.2064 15.4065C34.2842 15.4202 31.362 15.4161 28.4399 15.4133C27.5497 15.412 27.1475 15.0107 27.1475 14.1302C27.1461 12.213 27.1461 10.2958 27.1475 8.37859C27.1475 7.39671 27.5386 7.00505 28.5215 7.00368C30.3627 7.00231 32.2039 7.00368 34.0465 7.00231C34.1791 7.00231 34.3119 6.99136 34.5137 6.98177C33.6774 6.17929 32.7554 5.83967 31.6938 5.83967C22.4726 5.83967 13.2527 5.83693 4.03148 5.85063C3.67485 5.85063 3.2809 5.94923 2.96988 6.1204C2.36029 6.45454 2.19995 7.05024 2.20133 7.71305C2.20824 10.556 2.20409 13.3989 2.20548 16.2418C2.20548 16.3706 2.2193 16.4979 2.22759 16.6458C14.154 16.6458 26.0513 16.6458 38.0136 16.6458ZM2.25247 18.8328C2.25247 20.1474 2.21653 21.4141 2.27044 22.6768C2.29118 23.1478 2.63951 23.5505 3.09982 23.7203C3.46336 23.8545 3.87528 23.8558 4.26508 23.9188C4.59407 23.9722 4.75027 23.8408 4.86085 23.519C5.53817 21.5525 7.41393 20.2378 9.49566 20.2419C11.5801 20.2447 13.4531 21.5579 14.1263 23.5244C14.2383 23.8531 14.4042 23.9257 14.7248 23.9257C18.1944 23.9147 21.6653 23.9024 25.1348 23.9339C25.7583 23.9394 26.1978 23.8695 26.2739 23.167C26.2766 23.1424 26.2946 23.1191 26.3056 23.0944C27.9188 19.7462 32.3684 19.2368 34.6699 22.1564C35.0486 22.637 35.2947 23.2177 35.6195 23.7805C35.6029 23.7819 35.6416 23.7846 35.6789 23.7764C37.6791 23.2601 38.9425 21.4196 38.7739 19.3039C38.7448 18.9369 38.6163 18.8246 38.2389 18.8246C26.3872 18.8342 14.5341 18.8328 2.68237 18.8328C2.54137 18.8328 2.39761 18.8328 2.25247 18.8328ZM36.9133 13.2359C36.8801 13.1004 36.858 12.9867 36.8235 12.8758C36.4737 11.7665 36.1116 10.6628 35.7785 9.54945C35.6941 9.26871 35.5656 9.18518 35.2767 9.18655C33.4355 9.19887 31.5943 9.19203 29.7531 9.19339C29.6259 9.19339 29.4973 9.20846 29.3729 9.21667C29.3729 10.5806 29.3729 11.9049 29.3729 13.2359C31.9025 13.2359 34.3934 13.2359 36.9133 13.2359ZM6.76149 25.076C6.71035 26.5276 7.90603 27.7601 9.43622 27.8313C10.8987 27.8997 12.1911 26.6577 12.2298 25.1486C12.2671 23.6983 11.0452 22.459 9.53021 22.4138C8.06499 22.3686 6.8154 23.571 6.76149 25.076ZM33.5143 25.0267C33.4106 23.4998 32.143 22.3234 30.7027 22.4193C29.1614 22.522 27.9699 23.7764 28.0598 25.1992C28.1579 26.7248 29.4158 27.9093 30.8575 27.8299C32.4098 27.7464 33.6124 26.4783 33.5143 25.0267ZM27.6299 3.03509C27.5124 2.07649 27.623 2.09429 26.5282 2.22028C26.4743 2.47773 26.4204 2.74203 26.3596 3.03509C26.8033 3.03509 27.1972 3.03509 27.6299 3.03509Z" fill="white"/>
        <path d="M10.4693 11.9743C9.97447 11.9743 9.5349 11.9798 9.09672 11.9729C8.3724 11.9606 7.87478 11.5169 7.87063 10.8856C7.86648 10.2556 8.36134 9.80237 9.08566 9.7873C9.52385 9.77772 9.96203 9.78593 10.479 9.78593C10.479 9.24775 10.4514 8.73695 10.4859 8.23027C10.5412 7.40587 11.4383 6.96081 12.135 7.39492C12.475 7.60718 12.6506 7.92078 12.6533 8.32202C12.6561 8.79447 12.6533 9.26555 12.6533 9.78593C13.1579 9.78593 13.6209 9.77361 14.0826 9.78867C14.8 9.81195 15.2617 10.2803 15.2327 10.9349C15.2064 11.532 14.7544 11.951 14.0909 11.9702C13.6279 11.9839 13.1648 11.9729 12.6547 11.9729C12.6547 12.4577 12.6589 12.9027 12.6533 13.3478C12.645 14.0421 12.2082 14.5187 11.5779 14.5269C10.9379 14.5351 10.4901 14.0791 10.4721 13.3807C10.4597 12.9342 10.4693 12.4864 10.4693 11.9743Z" fill="white"/>
    </g>
    <defs>
        <clipPath id="clip0_184_267">
            <rect width="41" height="30" fill="white"/>
        </clipPath>
    </defs>
</svg>
