<svg width="54" height="56" viewBox="0 0 54 56" fill="none" xmlns="http://www.w3.org/2000/svg">
    <g clip-path="url(#clip0_184_318)">
        <path d="M36.5623 25.6667C35.6308 25.6667 34.8748 24.8827 34.8748 23.9167V13.8321C34.8748 12.8101 34.3955 11.9094 33.5608 11.3634C32.7283 10.8174 31.736 10.7591 30.845 11.2024L30.224 11.5127C29.1058 12.0331 27.8728 11.9281 26.8895 11.2654C25.904 10.6004 25.3145 9.47575 25.3145 8.25541L21.9373 8.16675C20.387 8.16675 19.1248 9.47575 19.1248 11.0834V23.9167C19.1248 24.8827 18.3688 25.6667 17.4373 25.6667C16.5058 25.6667 15.7498 24.8827 15.7498 23.9167V11.0834C15.7498 7.54375 18.524 4.66675 21.9373 4.66675H25.2268C27.1348 4.66675 28.6873 6.27675 28.6873 8.25541L29.3848 8.04775C31.3175 7.08641 33.5495 7.21941 35.3585 8.40241C37.1675 9.58541 38.2498 11.6131 38.2498 13.8321V23.9167C38.2498 24.8827 37.4938 25.6667 36.5623 25.6667Z" fill="#2B51B5"/>
        <path d="M18.9448 53.6667C18.6275 53.6667 18.3103 53.6411 17.993 53.5874L13.8688 52.9061C11.0473 52.4394 8.99976 50.0127 8.99976 47.1357V42.4131C8.99976 41.6524 9.47451 40.9781 10.172 40.7471C14.4965 39.3167 19.2508 39.3167 23.5753 40.7471C24.275 40.9781 24.7498 41.6524 24.7498 42.4131V47.8194C24.7498 49.4994 24.032 51.0977 22.7765 52.2084C21.7033 53.1557 20.3465 53.6667 18.9448 53.6667ZM18.524 50.1317C19.2778 50.2531 20.0248 50.0407 20.585 49.5461C21.0958 49.0957 21.3748 48.4821 21.3748 47.8194V43.7361C18.434 42.9847 15.3155 42.9847 12.3748 43.7361V47.1357C12.3748 48.2814 13.2275 49.2544 14.3998 49.4481L18.524 50.1317Z" fill="#2B51B5"/>
        <path d="M10.6877 45.5H6.18774C5.25624 45.5 4.50024 44.716 4.50024 43.75C4.50024 42.784 5.25624 42 6.18774 42H10.6877C11.6192 42 12.3752 42.784 12.3752 43.75C12.3752 44.716 11.6192 45.5 10.6877 45.5Z" fill="#2B51B5"/>
        <path d="M35.0548 53.6667C33.653 53.6667 32.294 53.1557 31.223 52.2084C29.9675 51.0977 29.2498 49.4994 29.2498 47.8194V42.4131C29.2498 41.6524 29.7245 40.9781 30.422 40.7471C34.7465 39.3167 39.5008 39.3167 43.8253 40.7471C44.525 40.9781 44.9998 41.6524 44.9998 42.4131V47.1357C44.9998 50.0127 42.9523 52.4371 40.1308 52.9061L36.0065 53.5874C35.6893 53.6411 35.372 53.6667 35.0548 53.6667ZM35.741 51.8607H35.7635H35.741ZM32.6248 43.7361V47.8194C32.6248 48.4821 32.9038 49.0957 33.4145 49.5461C33.9725 50.0407 34.7218 50.2531 35.4755 50.1317L39.5998 49.4504C40.772 49.2567 41.6248 48.2837 41.6248 47.1381V43.7384C38.684 42.9847 35.5655 42.9847 32.6248 43.7361Z" fill="#2B51B5"/>
        <path d="M47.8125 44.9167H43.875C42.9435 44.9167 42.1875 44.1327 42.1875 43.1667C42.1875 42.2007 42.9435 41.4167 43.875 41.4167H47.8125C48.744 41.4167 49.5 42.2007 49.5 43.1667C49.5 44.1327 48.744 44.9167 47.8125 44.9167Z" fill="#2B51B5"/>
        <path d="M30.9377 45.5H23.0627C22.1312 45.5 21.3752 44.716 21.3752 43.75C21.3752 42.784 22.1312 42 23.0627 42H30.9377C31.8692 42 32.6252 42.784 32.6252 43.75C32.6252 44.716 31.8692 45.5 30.9377 45.5Z" fill="#2B51B5"/>
        <path d="M27 35C13.5833 35 0 31.794 0 25.6667C0 19.6654 12.0578 17.556 17.2418 16.9284C18.1485 16.821 19.0035 17.5024 19.1138 18.4637C19.2218 19.4227 18.558 20.293 17.6332 20.405C7.5555 21.6254 3.375 24.4347 3.375 25.6667C3.375 27.6477 11.7135 31.5 27 31.5C42.2865 31.5 50.625 27.6477 50.625 25.6667C50.625 24.4347 46.4445 21.6254 36.3667 20.405C35.442 20.293 34.7783 19.4227 34.8862 18.4637C34.9943 17.5024 35.847 16.8257 36.7583 16.9284C41.9422 17.556 54 19.6654 54 25.6667C54 31.794 40.4167 35 27 35Z" fill="#2B51B5"/>
    </g>
    <defs>
        <clipPath id="clip0_184_318">
            <rect width="54" height="56" fill="white"/>
        </clipPath>
    </defs>
</svg>
