<svg width="36" height="18" viewBox="0 0 36 18" fill="none" xmlns="http://www.w3.org/2000/svg">
    <path d="M26.3798 0.835759C26.4184 0.337601 26.814 -0.0716002 27.3045 0.00926962C27.3913 0.0238262 27.4653 0.0513219 27.5232 0.0998438C28.4173 0.868107 29.223 1.73988 30.056 2.57769C31.8748 4.40697 33.6952 6.23463 35.5028 8.0736C36.1589 8.73997 36.1686 9.05213 35.5221 9.70717C32.9378 12.3274 30.3374 14.933 27.7451 17.5467C27.3479 17.9462 26.896 18.2179 26.42 17.7602C25.907 17.2685 26.1755 16.7833 26.5953 16.3628C28.5283 14.4203 30.458 12.4729 32.3991 10.5385C32.584 10.3541 32.8236 10.2247 33.0472 10.0776C32.9909 9.89318 32.9941 9.9045 32.9394 9.72173C31.4487 9.72173 29.9563 9.72173 28.4655 9.72173C19.4631 9.72173 10.4623 9.72173 1.45992 9.72011C0.823094 9.72011 0.00454727 9.83495 0.00293912 8.90495C-0.000277178 7.97333 0.819878 8.08654 1.4551 8.08654C11.7167 8.08331 21.9783 8.08169 32.2383 8.08169C32.4714 8.08169 32.703 8.08169 33.0874 8.08169C32.8687 7.81159 32.7561 7.64661 32.6178 7.5059C30.6333 5.50033 28.644 3.49961 26.6564 1.49727C26.6596 1.49566 26.3508 1.19159 26.3798 0.835759Z" fill="#D9D9D9"/>
</svg>
