<svg width="52" height="54" viewBox="0 0 52 54" fill="none" xmlns="http://www.w3.org/2000/svg">
    <path d="M44.2812 44.4023H41.2344V28.4766C41.2344 19.7532 34.4002 12.6562 26 12.6562C17.5998 12.6562 10.7656 19.7532 10.7656 28.4766V44.4023H7.71875C6.87741 44.4023 6.19531 45.1107 6.19531 45.9844V52.418C6.19531 53.2917 6.87741 54 7.71875 54H44.2812C45.1226 54 45.8047 53.2917 45.8047 52.418V45.9844C45.8047 45.1107 45.1226 44.4023 44.2812 44.4023ZM13.8125 28.4766C13.8125 21.4979 19.2798 15.8203 26 15.8203C32.7202 15.8203 38.1875 21.4979 38.1875 28.4766V44.4023H13.8125V28.4766ZM42.7578 50.8359H9.24219V47.5664H42.7578V50.8359Z" fill="white"/>
    <path d="M25.8984 9.49219C26.7398 9.49219 27.4219 8.78386 27.4219 7.91016V1.58203C27.4219 0.708328 26.7398 0 25.8984 0C25.0571 0 24.375 0.708328 24.375 1.58203V7.91016C24.375 8.78386 25.0571 9.49219 25.8984 9.49219Z" fill="white"/>
    <path d="M13.9034 11.7284C14.3254 12.4875 15.2578 12.743 15.9844 12.3075C16.7131 11.8706 16.9628 10.903 16.542 10.1464L13.4951 4.66614C13.0743 3.9094 12.1427 3.65026 11.4141 4.08711C10.6854 4.52396 10.4357 5.49153 10.8565 6.24817L13.9034 11.7284Z" fill="white"/>
    <path d="M8.75395 19.8931C9.17472 19.1365 8.92508 18.1689 8.19637 17.7321L2.91898 14.568C2.19027 14.131 1.25853 14.3903 0.837964 15.147C0.41719 15.9037 0.666831 16.8712 1.39554 17.3081L6.67293 20.4721C7.39839 20.9072 8.33145 20.6531 8.75395 19.8931Z" fill="white"/>
    <path d="M36.0157 12.3074C36.7411 12.7425 37.6742 12.4883 38.0967 11.7284L41.1436 6.24814C41.5643 5.49151 41.3147 4.52394 40.586 4.08708C39.8574 3.65002 38.9255 3.90937 38.505 4.66611L35.4581 10.1464C35.0373 10.903 35.2869 11.8706 36.0157 12.3074Z" fill="white"/>
    <path d="M51.1622 15.147C50.7414 14.3903 49.8098 14.1313 49.0811 14.568L43.8037 17.7321C43.075 18.1689 42.8254 19.1365 43.2462 19.8931C43.6682 20.6522 44.6006 20.9077 45.3272 20.4722L50.6046 17.3081C51.3333 16.8712 51.5829 15.9038 51.1622 15.147Z" fill="white"/>
</svg>
