<svg width="52" height="54" viewBox="0 0 52 54" fill="none" xmlns="http://www.w3.org/2000/svg">
    <g clip-path="url(#clip0_184_306)">
        <path d="M52 26.9989C52 41.8867 40.3353 54.0007 25.9997 54.0007C11.6654 54 0 41.8867 0 26.9989C0 12.1112 11.6654 0 26.0003 0C31.2405 0 36.3426 1.66291 40.6396 4.70266L44.635 0.552877L47.8493 13.3554L35.519 10.0181L38.3142 7.1132C34.6603 4.67199 30.388 3.33224 25.9976 3.33224C13.4302 3.33224 3.20676 13.9489 3.20676 26.9982C3.20676 40.049 13.4302 50.667 25.9976 50.667C38.5643 50.667 48.7877 40.049 48.7877 26.9982H52V26.9989ZM19.5298 27.2451C17.3411 28.8452 15.849 30.2256 15.057 31.3906C14.2642 32.5527 13.8658 33.9523 13.8658 35.586V35.591H25.5744V32.5042H18.0604L18.0721 32.4785C18.6402 31.6566 19.6954 30.7342 21.2431 29.7148C22.9138 28.6048 24.0542 27.6075 24.6669 26.7207C25.2735 25.829 25.5751 24.7075 25.5751 23.3564C25.5751 21.7056 25.042 20.3608 23.9765 19.3172C22.8953 18.2728 21.5186 17.7527 19.8273 17.7527C18.0157 17.7527 16.5861 18.3184 15.5598 19.4513C14.528 20.5877 14.0396 22.1172 14.0931 24.0555H17.4016C17.37 23.0139 17.5706 22.1964 18.0034 21.5907C18.4375 20.9879 19.0359 20.6883 19.8053 20.6883C20.5218 20.6883 21.1078 20.9301 21.5447 21.4131C21.9878 21.8932 22.2035 22.5267 22.2035 23.3193C22.2035 24.0476 22.0029 24.7025 21.6031 25.2975C21.206 25.8853 20.5156 26.5388 19.5298 27.2451ZM33.3777 35.5896V31.6609H26.5836V30.1443V28.6312L32.9291 17.7577H34.8155H36.7005V28.878H38.6323V31.6638H36.7005V35.5917L33.3777 35.5896ZM33.3777 28.8751V21.4459L29.2126 28.6305L29.0718 28.8744H33.3777V28.8751ZM27.0521 6.06952H25.4473V9.41032H27.0521V6.06952ZM27.0521 43.9305H25.4473V47.2713H27.0521V43.9305ZM46.0859 27.5033V25.8368H42.8675V27.5033H46.0859ZM9.62785 27.5033V25.8368H6.41215V27.5033H9.62785Z" fill="#2B51B5"/>
    </g>
    <defs>
        <clipPath id="clip0_184_306">
            <rect width="52" height="54" fill="white"/>
        </clipPath>
    </defs>
</svg>
