<svg width="46" height="46" viewBox="0 0 46 46" fill="none" xmlns="http://www.w3.org/2000/svg">
    <g clip-path="url(#clip0_184_279)">
        <path d="M12.537 38.2178C10.1004 37.7237 7.57223 37.7947 5.22551 38.4236L2.3568 39.1926C1.9516 39.3013 1.67848 39.083 1.57965 38.9842C1.48082 38.8854 1.2634 38.6122 1.37121 38.2071L2.22473 35.023C2.84016 32.7257 2.94258 30.3322 2.51942 28.1014C2.35141 27.2156 2.26606 26.2722 2.26606 25.2974C2.26606 24.3226 2.35141 23.3792 2.51942 22.4934C2.94258 20.2626 2.84016 17.8691 2.22473 15.5718L1.37121 12.3878C1.2625 11.9826 1.48082 11.7094 1.57965 11.6106C1.67848 11.5118 1.9516 11.2935 2.3568 11.4022L5.22641 12.1712C6.87594 12.6133 8.59016 12.7813 10.3206 12.6717C10.6898 12.6483 10.971 12.3294 10.9477 11.9592C10.9243 11.589 10.6045 11.3087 10.2352 11.3321C8.65036 11.4327 7.08168 11.2791 5.57321 10.8748L2.7045 10.1057C1.9552 9.90537 1.18075 10.1129 0.6318 10.661C0.0828544 11.2099 -0.124685 11.9844 0.0765653 12.7337L0.930081 15.9177C1.4943 18.0219 1.58774 20.2087 1.20231 22.2427C1.01903 23.2112 0.925589 24.2381 0.925589 25.2965C0.925589 26.3549 1.01903 27.3818 1.20231 28.3503C1.58774 30.3844 1.4934 32.5712 0.930081 34.6753L0.0765653 37.8594C-0.123786 38.6087 0.0837528 39.3831 0.6318 39.932C1.04239 40.3426 1.58055 40.5628 2.13938 40.5628C2.32625 40.5628 2.51672 40.5385 2.7045 40.4882L5.57321 39.7191C7.72047 39.1441 10.0366 39.0794 12.2711 39.5322C12.634 39.6059 12.988 39.3714 13.0617 39.0085C13.1345 38.6455 12.9 38.2915 12.537 38.2178Z" fill="white"/>
        <path d="M2.13832 40.967C1.4645 40.967 0.827504 40.701 0.345043 40.2177C-0.307222 39.5663 -0.553394 38.6454 -0.315308 37.7541L0.538207 34.5701C1.08625 32.5243 1.17789 30.3995 0.804145 28.4248C0.616372 27.432 0.520239 26.379 0.520239 25.2955C0.520239 24.212 0.615473 23.159 0.804145 22.1663C1.17879 20.1915 1.08625 18.0667 0.538207 16.0209L-0.315308 12.8369C-0.553394 11.9465 -0.307222 11.0256 0.345043 10.3734C0.997309 9.7211 1.91821 9.47493 2.80856 9.71301L5.67817 10.4821C7.14442 10.8747 8.66907 11.0247 10.2099 10.9259C10.4956 10.907 10.7723 11.0014 10.9879 11.1909C11.2036 11.3805 11.3329 11.6438 11.3509 11.9304C11.3689 12.217 11.2745 12.4937 11.085 12.7093C10.8954 12.9249 10.6331 13.0534 10.3465 13.0723C8.57294 13.1855 6.81469 13.013 5.12204 12.5593L2.25332 11.7902C2.06914 11.7408 1.94157 11.8189 1.867 11.8935C1.79243 11.9681 1.71426 12.0957 1.76368 12.2798L2.61719 15.4639C3.24879 17.8196 3.35301 20.275 2.91817 22.5661C2.75465 23.4277 2.672 24.3459 2.672 25.2946C2.672 26.2434 2.75465 27.1625 2.91817 28.0232C3.35211 30.3133 3.2479 32.7696 2.61719 35.1253L1.76368 38.3094C1.71426 38.4936 1.79243 38.6211 1.867 38.6957C1.94157 38.7703 2.06914 38.8484 2.25332 38.799L5.12204 38.03C7.52895 37.3849 10.1209 37.3121 12.6186 37.8188C12.8998 37.8763 13.1424 38.0389 13.3014 38.2788C13.4604 38.5178 13.5161 38.8053 13.4586 39.0865C13.3409 39.6669 12.7731 40.0443 12.1909 39.9266C10.0176 39.4854 7.76524 39.5483 5.67817 40.1072L2.80946 40.8762C2.58754 40.9373 2.36204 40.967 2.13832 40.967ZM2.14012 10.4354C1.68641 10.4354 1.24977 10.6132 0.91645 10.9466C0.471723 11.3913 0.302817 12.0202 0.465434 12.6284L1.31895 15.8125C1.89844 17.9741 1.99457 20.2238 1.59836 22.3172C1.41957 23.2605 1.32883 24.2623 1.32883 25.2955C1.32883 26.3287 1.41957 27.3305 1.59836 28.2738C1.99547 30.3672 1.89844 32.6169 1.31895 34.7785L0.465434 37.9626C0.302817 38.5708 0.470825 39.1997 0.91645 39.6445C1.24707 39.9751 1.68012 40.1566 2.13832 40.1566C2.29196 40.1566 2.44649 40.1359 2.59922 40.0955L5.46793 39.3264C7.6754 38.7352 10.0554 38.6688 12.3509 39.1341C12.4946 39.1629 12.6357 39.0704 12.6653 38.9257C12.6797 38.8556 12.6653 38.7847 12.6267 38.7254C12.5881 38.6661 12.527 38.6256 12.4578 38.6113C10.0823 38.1288 7.6179 38.198 5.33137 38.8107L2.46266 39.5798C2.0404 39.693 1.60375 39.5762 1.29559 39.2671C0.986528 38.958 0.869731 38.5214 0.982934 38.0991L1.83645 34.9151C2.43661 32.6762 2.53633 30.3447 2.12395 28.1732C1.95145 27.2622 1.8634 26.2937 1.8634 25.2937C1.8634 24.2938 1.95055 23.3252 2.12395 22.4142C2.53543 20.2427 2.43571 17.9113 1.83645 15.6723L0.982934 12.4883C0.869731 12.066 0.986528 11.6294 1.29559 11.3203C1.60465 11.0113 2.04129 10.8945 2.46266 11.0077L5.33137 11.7767C6.93958 12.2071 8.60887 12.3715 10.2952 12.2637C10.3662 12.2592 10.4309 12.2268 10.4785 12.1738C10.5252 12.1208 10.5486 12.0516 10.5441 11.9807C10.5396 11.9097 10.5073 11.8441 10.4543 11.7974C10.4013 11.7507 10.333 11.7264 10.262 11.7318C8.63313 11.8351 7.02043 11.677 5.46883 11.2619L2.59922 10.4929C2.44559 10.4551 2.29196 10.4354 2.14012 10.4354Z" fill="white"/>
        <path d="M45.0719 34.6752C44.5086 32.5711 44.4142 30.3843 44.7997 28.3502C44.983 27.3817 45.0764 26.3548 45.0764 25.2964C45.0764 24.2381 44.983 23.2111 44.7997 22.2426C44.4142 20.2086 44.5086 18.0218 45.0719 15.9176L45.9254 12.7336C46.1258 11.9843 45.9182 11.2098 45.3702 10.6609C44.8212 10.1119 44.0468 9.90438 43.2975 10.1056L40.4288 10.8747C37.9742 11.5324 35.3418 11.5225 32.8154 10.8459C29.9772 10.0859 26.6746 9.70044 23.0009 9.70044C19.3272 9.70044 16.0245 10.0859 13.1863 10.8459C12.8288 10.9421 12.6158 11.3095 12.712 11.6671C12.8081 12.0247 13.1756 12.2376 13.5331 12.1415C16.2581 11.412 19.444 11.0418 23.0009 11.0418C26.5578 11.0418 29.7428 11.412 32.4686 12.1415C35.2223 12.8791 38.0946 12.889 40.7765 12.1702L43.6452 11.4012C44.0504 11.2925 44.3235 11.5108 44.4223 11.6096C44.5212 11.7084 44.7386 11.9816 44.6308 12.3868L43.7773 15.5708C43.1618 17.8681 43.0594 20.2616 43.4826 22.4924C43.6506 23.3783 43.7359 24.3216 43.7359 25.2964C43.7359 26.2712 43.6506 27.2146 43.4826 28.1004C43.0594 30.3313 43.1618 32.7247 43.7773 35.022L44.6308 38.2061C44.7395 38.6113 44.5212 38.8844 44.4223 38.9832C44.3235 39.082 44.0504 39.3004 43.6452 39.1916L40.7765 38.4226C38.0955 37.7038 35.2223 37.7137 32.4686 38.4513C32.0104 38.5744 31.5351 38.6867 31.0482 38.79C31.519 37.9446 31.8622 37.0156 32.0454 36.0265C33.4874 35.5638 34.5647 33.7193 34.6842 32.1012C34.774 30.8775 34.2978 30.139 33.8819 29.7347C33.748 29.6044 33.5971 29.4885 33.4344 29.3861V25.1751C33.4344 21.0028 30.0392 17.6076 25.8669 17.6076H20.1951C16.0227 17.6076 12.6275 21.0028 12.6275 25.1751V29.3502C12.4424 29.4616 12.2717 29.5891 12.1217 29.7356C11.7057 30.1399 11.2295 30.8784 11.3194 32.1021C11.4452 33.8046 12.605 35.6716 14.0821 36.0624C14.888 40.3354 18.6605 43.4961 23.0602 43.4961C25.7761 43.4961 28.2522 42.2904 29.9395 40.3641C30.9395 40.1979 31.9071 39.9913 32.8163 39.7478C35.3427 39.0713 37.9751 39.0614 40.4297 39.719L43.2984 40.4881C43.4862 40.5384 43.6757 40.5627 43.8635 40.5627C44.4223 40.5627 44.9605 40.3434 45.3711 39.932C45.92 39.383 46.1276 38.6086 45.9263 37.8593L45.0719 34.6752ZM23.0593 42.1547C19.1574 42.1547 15.834 39.242 15.33 35.3787C15.286 35.0409 15.0003 34.7911 14.6553 34.7947C13.7847 34.8073 12.7569 33.3716 12.6563 32.0024C12.614 31.4336 12.7488 30.9943 13.0561 30.6951C13.3472 30.4121 13.8 30.2405 14.3651 30.1992C14.4262 30.1947 14.4855 30.1947 14.5475 30.1992C14.7325 30.2118 14.9158 30.1471 15.0515 30.0204C15.1872 29.8937 15.2644 29.7158 15.2644 29.5299V26.6638C15.2644 25.4968 16.2141 24.5462 17.382 24.5462H24.5219C24.8921 24.5462 25.1922 24.2461 25.1922 23.876C25.1922 23.5058 24.8921 23.2058 24.5219 23.2058H17.382C15.6651 23.2058 14.2375 24.4627 13.9689 26.105V25.1751C13.9689 21.7422 16.7621 18.949 20.1951 18.949H25.8669C29.2998 18.949 32.0931 21.7422 32.0931 25.1751V25.8193C31.7148 24.3189 30.3546 23.2058 28.7392 23.2058H27.8012C27.4311 23.2058 27.131 23.5058 27.131 23.876C27.131 24.2461 27.4311 24.5462 27.8012 24.5462H28.7392C29.9063 24.5462 30.8568 25.4959 30.8568 26.6638V29.5263C30.8568 29.705 30.9278 29.8757 31.0545 30.0015C31.1803 30.1264 31.3501 30.1965 31.5271 30.1965H31.5306C31.5729 30.1965 31.6061 30.1974 31.6376 30.1992C32.2027 30.2405 32.6555 30.4121 32.9466 30.6951C33.2538 30.9934 33.3877 31.4336 33.3464 32.0024C33.2485 33.3275 32.2728 34.7363 31.412 34.7929C31.0922 34.8136 30.8326 35.0579 30.7912 35.376C30.2854 39.2411 26.9621 42.1547 23.0593 42.1547Z" fill="white"/>
        <path d="M23.0593 43.9004C18.5572 43.9004 14.6724 40.7504 13.7317 36.3759C12.1154 35.7902 11.0382 33.8073 10.9151 32.1308C10.8136 30.7517 11.3616 29.909 11.8387 29.4445C11.9537 29.3322 12.0822 29.2271 12.2223 29.13V25.1751C12.2223 20.7791 15.7981 17.2033 20.1942 17.2033H25.866C30.2621 17.2033 33.8378 20.7791 33.8378 25.1751V29.1723C33.9564 29.2585 34.0652 29.3502 34.1631 29.4454C34.6402 29.9099 35.1882 30.7526 35.0867 32.1317C34.9681 33.7372 33.9394 35.6859 32.3977 36.3274C32.262 36.9734 32.0589 37.6023 31.7903 38.207C31.9853 38.1593 32.1766 38.1108 32.3635 38.0605C35.1855 37.3049 38.1306 37.295 40.8807 38.0318L43.7494 38.8008C43.9336 38.8502 44.0612 38.7721 44.1357 38.6975C44.2103 38.6229 44.2885 38.4954 44.2391 38.3112L43.3856 35.1271C42.7539 32.7714 42.6497 30.3151 43.0846 28.025C43.2481 27.1634 43.3307 26.2452 43.3307 25.2964C43.3307 24.3468 43.2481 23.4286 43.0846 22.5679C42.6506 20.2777 42.7548 17.8214 43.3856 15.4657L44.2391 12.2816C44.2885 12.0975 44.2103 11.9699 44.1357 11.8953C44.0612 11.8208 43.9336 11.7417 43.7494 11.792L40.8798 12.5611C38.1297 13.2978 35.1846 13.2879 32.3626 12.5323C29.6709 11.8118 26.521 11.4461 23 11.4461C19.4781 11.4461 16.3282 11.8118 13.6374 12.5323C13.3598 12.6069 13.0705 12.5683 12.8216 12.4245C12.5727 12.2808 12.3948 12.049 12.3212 11.7713C12.2466 11.4937 12.2852 11.2044 12.429 10.9556C12.5727 10.7067 12.8045 10.5288 13.0821 10.4551C15.9553 9.68606 19.2921 9.29614 23.0009 9.29614C26.7096 9.29614 30.0473 9.68606 32.9196 10.4551C35.3778 11.1137 37.9383 11.1236 40.3237 10.4839L43.1924 9.71481C44.0827 9.47673 45.0036 9.7229 45.6559 10.3752C46.3082 11.0274 46.5543 11.9474 46.3163 12.8387L45.4627 16.0227C44.9147 18.0685 44.8231 20.1933 45.1968 22.1681C45.3855 23.1608 45.4807 24.2138 45.4807 25.2973C45.4807 26.3808 45.3855 27.4338 45.1968 28.4266C44.8222 30.4013 44.9147 32.5261 45.4627 34.5719L46.3163 37.7559C46.5552 38.6463 46.3082 39.5672 45.6559 40.2195C45.1734 40.7028 44.5364 40.9679 43.8626 40.9679C43.638 40.9679 43.4125 40.9382 43.1924 40.8789L40.3237 40.1099C37.9383 39.4702 35.3778 39.4809 32.9196 40.1386C32.0437 40.3731 31.1111 40.5752 30.1462 40.7397C28.3304 42.7504 25.7555 43.9004 23.0593 43.9004ZM20.1933 18.0119C16.2437 18.0119 13.03 21.2256 13.03 25.1751V29.5793L12.8342 29.697C12.6698 29.7958 12.5242 29.9063 12.402 30.0249C12.048 30.369 11.6428 31.0042 11.721 32.0724C11.8414 33.7013 12.9689 35.3499 14.1845 35.6716L14.4307 35.7372L14.4783 35.9878C15.2546 40.1045 18.8636 43.0927 23.0593 43.0927C25.5713 43.0927 27.9675 42.0011 29.6341 40.0982L29.7293 39.9895L29.8721 39.9661C30.8613 39.8017 31.8164 39.5977 32.7103 39.3579C35.305 38.6625 38.0102 38.6526 40.533 39.3291L43.4026 40.0982C43.5545 40.1386 43.709 40.1593 43.8626 40.1593C44.3199 40.1593 44.7539 39.9778 45.0845 39.6472C45.5292 39.2015 45.6981 38.5726 45.5355 37.9653L44.682 34.7812C44.1025 32.6196 44.0064 30.3699 44.4026 28.2765C44.5814 27.3332 44.6721 26.3305 44.6721 25.2982C44.6721 24.2659 44.5814 23.2633 44.4026 22.3199C44.0055 20.2265 44.1025 17.9768 44.682 15.8152L45.5355 12.6311C45.6981 12.0229 45.5301 11.394 45.0845 10.9493C44.6389 10.5036 44.01 10.3356 43.4026 10.4983L40.5339 11.2673C38.0111 11.9429 35.3068 11.9331 32.7112 11.2386C29.9063 10.4875 26.6396 10.1065 23.0009 10.1065C19.3622 10.1065 16.0955 10.4875 13.2906 11.2386C13.2214 11.2574 13.1648 11.3015 13.1289 11.3625C13.0929 11.4245 13.0839 11.4955 13.1019 11.5647C13.1208 11.6339 13.1648 11.6914 13.2259 11.7264C13.2879 11.7624 13.3589 11.7713 13.428 11.7534C16.1871 11.0149 19.408 10.6402 23 10.6402C26.5919 10.6402 29.8119 11.0149 32.572 11.7534C35.2565 12.4721 38.0569 12.482 40.6705 11.7821L43.5392 11.0131C43.9614 10.8999 44.3972 11.0166 44.7063 11.3257C45.0153 11.6348 45.1321 12.0714 45.0189 12.4937L44.1654 15.6777C43.5652 17.9166 43.4655 20.2481 43.877 22.4196C44.0495 23.3306 44.1375 24.2991 44.1375 25.2991C44.1375 26.2991 44.0504 27.2676 43.877 28.1786C43.4655 30.3501 43.5652 32.6816 44.1654 34.9205L45.0189 38.1045C45.1321 38.5268 45.0153 38.9634 44.7063 39.2725C44.3972 39.5816 43.9605 39.6984 43.5392 39.5852L40.6705 38.8161C38.0578 38.1162 35.2574 38.1261 32.572 38.8449C32.1111 38.9679 31.6259 39.0838 31.1309 39.189L30.2621 39.3722L30.6942 38.596C31.156 37.7676 31.4759 36.88 31.6466 35.9564L31.6906 35.7192L31.9206 35.6455C33.2467 35.2197 34.1775 33.4605 34.279 32.0751C34.358 31.0069 33.952 30.3717 33.598 30.0276C33.4902 29.9225 33.3617 29.8227 33.2161 29.7302L33.0284 29.6107V25.1769C33.0284 21.2274 29.8146 18.0137 25.8651 18.0137H20.1933V18.0119ZM23.0593 42.559C18.9552 42.559 15.4594 39.4944 14.9293 35.4317C14.9114 35.2969 14.7999 35.1999 14.6634 35.1999C14.6562 35.1999 14.649 35.1999 14.6418 35.1999C13.4469 35.1999 12.3589 33.4749 12.2529 32.0329C12.2017 31.3393 12.3769 30.7922 12.774 30.4067C13.1342 30.0563 13.6733 29.8452 14.3346 29.7967C14.4145 29.7904 14.4927 29.7904 14.5744 29.7967C14.6481 29.8021 14.7209 29.776 14.7748 29.7257C14.8287 29.6754 14.8592 29.6044 14.8592 29.5308V26.6647C14.8592 25.274 15.9904 24.1428 17.3812 24.1428H24.521C24.6675 24.1428 24.787 24.0233 24.787 23.8769C24.787 23.7304 24.6675 23.6109 24.521 23.6109H17.3812C15.8772 23.6109 14.6095 24.6873 14.3669 26.1715L13.5637 26.1059V25.176C13.5637 21.5203 16.5384 18.5456 20.1942 18.5456H25.866C29.5218 18.5456 32.4965 21.5203 32.4965 25.176V29.0788L31.7005 25.919C31.3582 24.5597 30.1399 23.6109 28.7383 23.6109H27.8003C27.6539 23.6109 27.5344 23.7304 27.5344 23.8769C27.5344 24.0233 27.6539 24.1428 27.8003 24.1428H28.7383C30.1282 24.1428 31.2593 25.274 31.2593 26.6647V29.5272C31.2593 29.5972 31.2881 29.6664 31.3384 29.7158C31.3905 29.767 31.4633 29.7931 31.5334 29.7931C31.5873 29.7931 31.6286 29.794 31.6672 29.7967C32.3285 29.8452 32.8684 30.0563 33.2278 30.4067C33.624 30.7922 33.8001 31.3393 33.7489 32.0329C33.6456 33.4327 32.6142 35.1199 31.4381 35.1972C31.3114 35.2053 31.2081 35.3032 31.1911 35.429C30.6601 39.4935 27.1643 42.559 23.0593 42.559ZM14.6616 34.3913C15.2024 34.3913 15.6607 34.792 15.7307 35.3275C16.2087 38.9895 19.3595 41.7513 23.0593 41.7513C26.76 41.7513 29.9108 38.9886 30.3887 35.3248C30.4543 34.8172 30.873 34.4245 31.3842 34.3904C31.9772 34.3518 32.8559 33.1497 32.9421 31.9736C32.9745 31.5298 32.881 31.1974 32.6636 30.9862C32.4417 30.7706 32.076 30.6376 31.607 30.6035C31.5846 30.6017 31.5612 30.6017 31.5307 30.6017C31.2396 30.6017 30.9709 30.4903 30.7679 30.289C30.5666 30.0887 30.4507 29.8102 30.4507 29.5263V26.6638C30.4507 25.7196 29.6826 24.9505 28.7383 24.9505H27.8003C27.2074 24.9505 26.7258 24.4681 26.7258 23.876C26.7258 23.2839 27.2083 22.8015 27.8003 22.8015H28.7383C29.847 22.8015 30.8649 23.2713 31.5774 24.0431C31.0491 21.3729 28.6889 19.3533 25.866 19.3533H20.1942C17.3443 19.3533 14.9662 21.4116 14.4684 24.1204C15.18 23.3046 16.2249 22.8015 17.3812 22.8015H24.521C25.114 22.8015 25.5956 23.2839 25.5956 23.876C25.5956 24.4681 25.1131 24.9505 24.521 24.9505H17.3812C16.4369 24.9505 15.6678 25.7187 15.6678 26.6638V29.5299C15.6678 29.8263 15.543 30.1129 15.3264 30.316C15.109 30.519 14.8143 30.6232 14.5178 30.6026C14.4765 30.5999 14.4352 30.5999 14.3939 30.6026C13.9249 30.6367 13.5601 30.7697 13.3373 30.9853C13.1199 31.1965 13.0264 31.5289 13.0588 31.9727C13.1477 33.1775 14.0524 34.3904 14.6427 34.3904C14.649 34.3913 14.6553 34.3913 14.6616 34.3913Z" fill="white"/>
        <path d="M24.5595 35.5197C24.1489 35.8755 23.5955 36.0714 22.9998 36.0714C22.4042 36.0714 21.8507 35.8755 21.4402 35.5197C21.1598 35.2772 20.7367 35.3077 20.4941 35.5871C20.2515 35.8665 20.2821 36.2906 20.5615 36.5332C21.2155 37.1001 22.0816 37.4127 22.9989 37.4127C23.9162 37.4127 24.7823 37.1001 25.4364 36.5332C25.7167 36.2906 25.7464 35.8674 25.5038 35.5871C25.263 35.3077 24.8389 35.2772 24.5595 35.5197Z" fill="white"/>
        <path d="M22.9997 37.817C21.9845 37.817 21.025 37.4693 20.2972 36.8386C20.0798 36.6508 19.9495 36.3894 19.9289 36.1028C19.9082 35.8162 20.0007 35.5395 20.1885 35.3221C20.5766 34.8737 21.2568 34.8252 21.7051 35.2133C22.042 35.5053 22.502 35.6662 22.9997 35.6662C23.4975 35.6662 23.9575 35.5053 24.2944 35.2133C24.5118 35.0256 24.7885 34.9339 25.0751 34.9537C25.3617 34.9744 25.6232 35.1055 25.8109 35.3221C25.9987 35.5386 26.0912 35.8162 26.0706 36.1028C26.0499 36.3894 25.9196 36.6508 25.7022 36.8386C24.9745 37.4702 24.0141 37.817 22.9997 37.817ZM21.0016 35.7605C20.927 35.7605 20.8525 35.7919 20.8004 35.8521C20.7536 35.906 20.7312 35.9743 20.7357 36.0453C20.7411 36.1163 20.7734 36.181 20.8273 36.2277C21.4086 36.7308 22.1804 37.0084 23.0006 37.0084C23.8209 37.0084 24.5927 36.7317 25.1739 36.2277C25.2279 36.181 25.2602 36.1163 25.2656 36.0453C25.271 35.9743 25.2476 35.906 25.2009 35.8521C25.1542 35.7982 25.0895 35.7659 25.0185 35.7605C24.9475 35.7551 24.8793 35.7785 24.8254 35.8252C24.3411 36.2447 23.6933 36.4756 23.0015 36.4756C22.3097 36.4756 21.662 36.2447 21.1777 35.8252C21.1256 35.7821 21.0627 35.7605 21.0016 35.7605Z" fill="white"/>
        <path d="M28.4503 30.6808C28.0972 30.5703 27.7207 30.768 27.6102 31.1219C27.5105 31.4418 27.2176 31.6565 26.8825 31.6565C26.5474 31.6565 26.2545 31.4418 26.1548 31.1219C26.0443 30.768 25.6687 30.5712 25.3147 30.6808C24.9607 30.7913 24.764 31.1669 24.8736 31.5208C25.1494 32.404 25.9562 32.9979 26.8825 32.9979C27.8088 32.9979 28.6156 32.404 28.8914 31.5208C29.0019 31.1669 28.8043 30.7913 28.4503 30.6808Z" fill="white"/>
        <path d="M26.8823 33.4022C25.7781 33.4022 24.8159 32.6942 24.488 31.6412C24.4026 31.3672 24.4287 31.0761 24.5625 30.8219C24.6964 30.5676 24.9201 30.3807 25.1941 30.2954C25.7602 30.1193 26.3639 30.4364 26.54 31.0016C26.5867 31.1516 26.7242 31.2522 26.8823 31.2522C27.0404 31.2522 27.1779 31.1516 27.2246 31.0016C27.31 30.7275 27.4968 30.5029 27.7511 30.3691C28.0053 30.2352 28.2964 30.2091 28.5705 30.2945C28.8445 30.3798 29.0691 30.5667 29.203 30.821C29.3368 31.0752 29.3629 31.3663 29.2775 31.6404C28.9487 32.6951 27.9865 33.4022 26.8823 33.4022ZM25.514 31.0546C25.4879 31.0546 25.461 31.0582 25.4349 31.0662C25.3675 31.0878 25.3118 31.1336 25.2786 31.1965C25.2453 31.2594 25.2391 31.3313 25.2597 31.3996C25.4825 32.1129 26.1348 32.5927 26.8823 32.5927C27.6298 32.5927 28.283 32.1129 28.5049 31.3996C28.5264 31.3313 28.5193 31.2594 28.4869 31.1965C28.4537 31.1336 28.398 31.0869 28.3306 31.0662C28.2623 31.0447 28.1904 31.0519 28.1275 31.0851C28.0646 31.1184 28.0179 31.1741 27.9973 31.2414C27.8445 31.7311 27.3971 32.0608 26.8832 32.0608C26.3693 32.0608 25.9219 31.732 25.7691 31.2423C25.7332 31.1282 25.6272 31.0546 25.514 31.0546Z" fill="white"/>
        <path d="M21.2447 31.5208C21.3552 31.1669 21.1575 30.7913 20.8035 30.6808C20.4505 30.5703 20.074 30.768 19.9635 31.1219C19.8638 31.4418 19.5709 31.6565 19.2358 31.6565C18.9006 31.6565 18.6078 31.4418 18.508 31.1219C18.3975 30.768 18.022 30.5712 17.668 30.6808C17.314 30.7913 17.1173 31.1669 17.2269 31.5208C17.5027 32.404 18.3095 32.9979 19.2358 32.9979C20.1621 32.9979 20.9689 32.404 21.2447 31.5208Z" fill="white"/>
        <path d="M19.2356 33.4022C18.1314 33.4022 17.1692 32.6942 16.8412 31.6412C16.7559 31.3672 16.7819 31.0761 16.9158 30.8219C17.0488 30.5676 17.2734 30.3807 17.5474 30.2954C18.1134 30.1193 18.7172 30.4355 18.8933 31.0016C18.94 31.1516 19.0775 31.2522 19.2356 31.2522C19.3937 31.2522 19.5312 31.1516 19.5779 31.0016C19.6632 30.7275 19.8501 30.5029 20.1044 30.3691C20.3586 30.2352 20.6497 30.2091 20.9237 30.2945C21.1978 30.3798 21.4224 30.5667 21.5553 30.821C21.6883 31.0752 21.7153 31.3663 21.6299 31.6404C21.302 32.6951 20.3398 33.4022 19.2356 33.4022ZM17.8673 31.0546C17.8412 31.0546 17.8142 31.0582 17.7882 31.0662C17.7199 31.0878 17.6642 31.1336 17.6319 31.1965C17.5986 31.2594 17.5923 31.3313 17.613 31.3996C17.8358 32.1138 18.4872 32.5927 19.2356 32.5927C19.984 32.5927 20.6362 32.1129 20.8582 31.3996C20.8797 31.3313 20.8725 31.2594 20.8393 31.1965C20.806 31.1336 20.7503 31.0869 20.683 31.0662C20.6147 31.0456 20.5428 31.0519 20.4799 31.0842C20.417 31.1175 20.3703 31.1732 20.3496 31.2414C20.1969 31.7311 19.7495 32.0599 19.2356 32.0599C18.7217 32.0599 18.2742 31.7311 18.1215 31.2414C18.0856 31.1282 17.9805 31.0546 17.8673 31.0546Z" fill="white"/>
        <path d="M34.0813 20.5211C34.0813 21.0719 34.3975 21.2525 34.9384 21.2525H38.9553C39.3794 21.2525 39.7226 21.0359 39.7226 20.6299C39.7226 20.2238 39.3794 20.0072 38.9553 20.0072H36.0668L39.4701 15.9634C39.6058 15.8097 39.6777 15.6112 39.6777 15.4306C39.6777 14.9158 39.3704 14.7532 38.9913 14.7532H35.092C34.668 14.7532 34.3248 14.9697 34.3248 15.3758C34.3248 15.7819 34.668 15.9984 35.092 15.9984H37.6733L34.3248 19.9515C34.19 20.115 34.0813 20.2866 34.0813 20.5211Z" fill="white"/>
        <path d="M38.9553 21.6568H34.9384C33.8405 21.6568 33.677 20.9453 33.677 20.5212C33.677 20.1466 33.8576 19.8824 34.0148 19.6938L36.8018 16.4037H35.0929C34.4029 16.4037 33.9214 15.9814 33.9214 15.3768C33.9214 14.7721 34.4029 14.3499 35.0929 14.3499H38.9922C39.6651 14.3499 40.082 14.764 40.082 15.4316C40.082 15.7164 39.9706 16.0057 39.7765 16.2276L36.9356 19.6039H38.9553C39.6453 19.6039 40.1269 20.0262 40.1269 20.6308C40.1269 21.2346 39.6453 21.6568 38.9553 21.6568ZM35.0929 15.1584C34.9842 15.1584 34.73 15.18 34.73 15.3768C34.73 15.5744 34.9842 15.5951 35.0929 15.5951H38.5465L34.6338 20.214C34.5251 20.3442 34.4856 20.4251 34.4856 20.5212C34.4856 20.7324 34.4856 20.8483 34.9384 20.8483H38.9553C39.064 20.8483 39.3183 20.8267 39.3183 20.6299C39.3183 20.4323 39.064 20.4116 38.9553 20.4116H35.1981L39.1665 15.6957C39.232 15.6211 39.2725 15.5196 39.2725 15.4307C39.2725 15.2195 39.2356 15.1575 38.9913 15.1575H35.0929V15.1584Z" fill="white"/>
        <path d="M37.375 9.65542H40.5187C40.7469 9.65542 41.0173 9.52874 41.0173 9.17386C41.0173 8.81898 40.7469 8.6923 40.5187 8.6923H38.49L40.772 6.19015C40.8906 6.06347 40.9661 5.91073 40.9661 5.77597C40.9661 5.45433 40.7882 5.23511 40.4594 5.23511H37.5269C37.2987 5.23511 37.0282 5.36179 37.0282 5.71667C37.0282 6.07155 37.2987 6.19823 37.5269 6.19823H39.3103L36.986 8.72554C36.8764 8.84413 36.8252 8.99597 36.8252 9.17386C36.8252 9.41823 37.0112 9.65542 37.375 9.65542Z" fill="white"/>
        <path d="M40.5187 10.0598H37.3741C36.7551 10.0598 36.4209 9.60339 36.4209 9.17394C36.4209 8.89003 36.5134 8.64026 36.6895 8.45069L38.3894 6.60351H37.5269C37.0786 6.60351 36.6239 6.29894 36.6239 5.71765C36.6239 5.13546 37.0786 4.83179 37.5269 4.83179H40.4594C40.9957 4.83179 41.3704 5.22081 41.3704 5.77694C41.3704 6.01233 41.2626 6.25761 41.0667 6.46694L39.4055 8.28898H40.5178C40.9661 8.28898 41.4207 8.59355 41.4207 9.17483C41.4207 9.75612 40.9679 10.0598 40.5187 10.0598ZM37.5269 5.63948C37.4325 5.63948 37.4325 5.66733 37.4325 5.71675C37.4325 5.76616 37.4325 5.79401 37.5269 5.79401H40.2312L37.2834 8.99874C37.2681 9.01581 37.2295 9.05714 37.2295 9.17304C37.2295 9.23683 37.3086 9.2503 37.3741 9.2503H40.5187C40.613 9.2503 40.613 9.22245 40.613 9.17304C40.613 9.12362 40.613 9.09577 40.5187 9.09577H37.5745L40.4737 5.9171C40.5375 5.84882 40.5609 5.79132 40.5627 5.77335C40.5627 5.63858 40.5286 5.63858 40.4594 5.63858H37.5269V5.63948Z" fill="white"/>
        <path d="M32.4256 5.81098H34.7787C34.9494 5.81098 35.1515 5.71574 35.1515 5.4507C35.1515 5.18476 34.9494 5.09043 34.7787 5.09043H33.2603L34.9682 3.21809C35.0572 3.12285 35.1138 3.00965 35.1138 2.90812C35.1138 2.66824 34.9808 2.50293 34.7346 2.50293H32.5397C32.369 2.50293 32.1669 2.59816 32.1669 2.8632C32.1669 3.12824 32.369 3.22348 32.5397 3.22348H33.8739L32.1346 5.11469C32.0519 5.20363 32.0142 5.31684 32.0142 5.4498C32.0142 5.63398 32.1534 5.81098 32.4256 5.81098Z" fill="white"/>
        <path d="M34.7777 6.21535H32.4247C31.9602 6.21535 31.6089 5.88652 31.6089 5.45078C31.6089 5.21269 31.6879 5.00156 31.8371 4.84074L32.9512 3.62875H32.5379C32.1515 3.62875 31.7607 3.36641 31.7607 2.86418C31.7607 2.36195 32.1515 2.09961 32.5379 2.09961H34.7328C35.1945 2.09961 35.5162 2.43203 35.5162 2.9082C35.5162 3.11035 35.4254 3.31879 35.2619 3.49398L34.1748 4.68531H34.7768C35.1631 4.68531 35.5539 4.94766 35.5539 5.44988C35.5557 5.95301 35.164 6.21535 34.7777 6.21535ZM32.4238 5.40676L33.4255 4.30977L32.4328 5.38969C32.4283 5.39328 32.4256 5.39957 32.4238 5.40676Z" fill="white"/>
    </g>
    <defs>
        <clipPath id="clip0_184_279">
            <rect width="46" height="46" fill="white"/>
        </clipPath>
    </defs>
</svg>
