<svg width="42" height="42" viewBox="0 0 42 42" fill="none" xmlns="http://www.w3.org/2000/svg">
    <path d="M15.9043 4.93152H13.4385V8.21916H15.9043V4.93152Z" fill="white"/>
    <path d="M37.438 19.3973V18.1644C37.438 16.5572 36.4072 15.1868 34.9723 14.6779V5.01367H32.5065V14.6778C31.0715 15.1867 30.0407 16.5571 30.0407 18.1643V19.3972H28.6435V21.863H32.5065V31.315C32.5065 35.8471 28.8193 39.5342 24.2873 39.5342H24.1229C20.0098 39.5342 16.5928 36.4973 15.9962 32.5479H16.7256C21.9375 32.5479 26.1777 28.3078 26.1777 23.0959V7.47945C26.1777 5.89321 24.8872 4.60269 23.301 4.60269H22.0682V3.69863C22.0682 1.65925 20.409 0 18.3695 0H10.9723C8.93291 0 7.27366 1.65925 7.27366 3.69863V4.60277H6.04082C4.45458 4.60277 3.16406 5.89329 3.16406 7.47953V23.0959C3.16406 28.3078 7.40426 32.5479 12.6161 32.5479H13.5095C14.1228 37.8609 18.6483 42 24.123 42H24.2874C30.179 42 34.9723 37.2067 34.9723 31.3151V21.8631H38.8353V19.3973H37.438ZM5.62984 7.47945C5.62984 7.25288 5.81416 7.06847 6.04082 7.06847H9.73944V3.69863C9.73944 3.01883 10.2925 2.46578 10.9723 2.46578H18.3695C19.0493 2.46578 19.6024 3.01883 19.6024 3.69863V7.06847H23.301C23.5276 7.06847 23.712 7.25279 23.712 7.47945V10.6849H5.62984V7.47945ZM5.62984 13.1507H23.7121V20.4918C20.8713 20.9275 17.9708 20.3431 14.9178 19.7274C11.8899 19.1166 8.77328 18.489 5.62992 18.905V13.1507H5.62984ZM12.6161 30.0822C8.76384 30.0822 5.62984 26.9481 5.62984 23.0959V21.3954C8.45836 20.94 11.368 21.5267 14.4303 22.1445C17.451 22.7537 20.5603 23.3809 23.7121 22.9815V23.0959C23.7121 26.9482 20.578 30.0822 16.7258 30.0822H12.6161ZM34.9723 19.3973H32.5066V18.1644C32.5066 17.4846 33.0596 16.9316 33.7394 16.9316C34.4192 16.9316 34.9723 17.4846 34.9723 18.1644V19.3973H34.9723Z" fill="white"/>
</svg>
