<svg width="45" height="46" viewBox="0 0 45 46" fill="none" xmlns="http://www.w3.org/2000/svg">
    <g clip-path="url(#clip0_184_326)">
        <path d="M43.5925 20.1237C42.8163 20.1237 42.1863 20.7677 42.1863 21.5611V37.8384L30.937 42.4381V27.3108C30.937 26.5173 30.3071 25.8734 29.5309 25.8734C28.7547 25.8734 28.1247 26.5173 28.1247 27.3108V42.4352L16.8754 37.8355V15.0612L23.3916 17.7261C24.1031 18.0194 24.9299 17.6629 25.2196 16.9241C25.5092 16.1881 25.1577 15.3515 24.4349 15.0554L16.0177 11.6114C16.0177 11.6114 16.0177 11.6114 16.0148 11.6114L15.9923 11.6028C15.6577 11.4648 15.2836 11.4648 14.949 11.6028L14.9237 11.6114C14.9237 11.6114 14.9237 11.6114 14.9208 11.6114L0.884535 17.3524C0.353005 17.5709 0.00146484 18.097 0.00146484 18.6863V44.5597C0.00146484 45.0369 0.234888 45.4825 0.620176 45.7499C0.856411 45.9138 1.12921 45.9971 1.40763 45.9971C1.5848 45.9971 1.76198 45.9626 1.93072 45.8936L15.4692 40.3596L28.9825 45.885C28.9825 45.885 28.9825 45.885 28.9853 45.885L29.0106 45.8965C29.3453 46.0345 29.7193 46.0345 30.054 45.8965L30.0793 45.885C30.0793 45.885 30.0793 45.885 30.0821 45.885L44.1184 40.1469C44.6471 39.9255 44.9987 39.3994 44.9987 38.8101V21.5611C44.9987 20.7677 44.3687 20.1237 43.5925 20.1237ZM14.0631 37.8355L2.81379 42.4352V19.658L14.0631 15.0583V37.8355Z" fill="white"/>
        <path d="M35.1553 5.74963C32.8295 5.74963 30.9368 7.68439 30.9368 10.0619C30.9368 12.4393 32.8295 14.3741 35.1553 14.3741C37.481 14.3741 39.3737 12.4393 39.3737 10.0619C39.3737 7.68439 37.481 5.74963 35.1553 5.74963ZM35.1553 11.4993C34.3791 11.4993 33.7491 10.8553 33.7491 10.0619C33.7491 9.26841 34.3791 8.62445 35.1553 8.62445C35.9315 8.62445 36.5614 9.26841 36.5614 10.0619C36.5614 10.8553 35.9315 11.4993 35.1553 11.4993Z" fill="white"/>
        <path d="M35.1554 0C29.7276 0 25.3123 4.51347 25.3123 10.0619C25.3123 15.225 33.2093 24.3699 34.1092 25.3962C34.3764 25.698 34.756 25.8734 35.1554 25.8734C35.5547 25.8734 35.9344 25.698 36.2016 25.3962C37.1015 24.3699 44.9985 15.225 44.9985 10.0619C44.9985 4.51347 40.5832 0 35.1554 0ZM35.1554 22.2425C32.0843 18.5196 28.1246 12.8045 28.1246 10.0619C28.1246 6.10037 31.28 2.87482 35.1554 2.87482C39.0308 2.87482 42.1862 6.10037 42.1862 10.0619C42.1862 12.8016 38.2264 18.5196 35.1554 22.2425Z" fill="white"/>
    </g>
    <defs>
        <clipPath id="clip0_184_326">
            <rect width="45" height="46" fill="white"/>
        </clipPath>
    </defs>
</svg>
