<svg width="34" height="34" viewBox="0 0 34 34" fill="none" xmlns="http://www.w3.org/2000/svg">
    <g clip-path="url(#clip0_184_261)">
        <path d="M26.8706 21.0618C26.1746 20.3371 25.335 19.9496 24.4452 19.9496C23.5625 19.9496 22.7158 20.3299 21.991 21.0547L19.7234 23.3151C19.5368 23.2146 19.3503 23.1213 19.1709 23.028C18.9125 22.8989 18.6686 22.7769 18.4605 22.6477C16.3364 21.2986 14.406 19.5405 12.5547 17.2658C11.6577 16.132 11.0549 15.1776 10.6172 14.2088C11.2056 13.6706 11.751 13.1109 12.282 12.5727C12.4829 12.3718 12.6838 12.1637 12.8848 11.9627C14.3917 10.4558 14.3917 8.50395 12.8848 6.997L10.9257 5.03797C10.7033 4.81552 10.4736 4.58589 10.2584 4.35626C9.82781 3.91135 9.37572 3.45209 8.90929 3.02154C8.21322 2.33265 7.38081 1.96667 6.50535 1.96667C5.62989 1.96667 4.78313 2.33265 4.06553 3.02154C4.05836 3.02871 4.05836 3.02871 4.05118 3.03589L1.61136 5.49723C0.692844 6.41575 0.169001 7.5352 0.0541861 8.83404C-0.118036 10.9294 0.499094 12.8813 0.972705 14.1586C2.13521 17.2945 3.87178 20.2007 6.46229 23.3151C9.60535 27.0681 13.3871 30.0317 17.707 32.1199C19.3574 32.9021 21.5605 33.8278 24.0218 33.9857C24.1725 33.9929 24.3304 34 24.4739 34C26.1315 34 27.5237 33.4044 28.6144 32.2204C28.6216 32.2061 28.6359 32.1989 28.6431 32.1845C29.0162 31.7324 29.4468 31.3234 29.8989 30.8857C30.2075 30.5915 30.5232 30.2829 30.8318 29.96C31.5422 29.2209 31.9153 28.3598 31.9153 27.4771C31.9153 26.5873 31.535 25.7334 30.8102 25.0158L26.8706 21.0618ZM29.4396 28.6181C29.4325 28.6181 29.4325 28.6253 29.4396 28.6181C29.1598 28.9195 28.8727 29.1922 28.5642 29.4936C28.0977 29.9385 27.6241 30.4049 27.1792 30.9287C26.4544 31.7037 25.6005 32.0697 24.4811 32.0697C24.3734 32.0697 24.2586 32.0697 24.151 32.0625C22.0197 31.9262 20.0392 31.0938 18.5537 30.3834C14.4922 28.4172 10.9257 25.6257 7.96206 22.088C5.51507 19.1387 3.87896 16.4118 2.79539 13.484C2.12803 11.6972 1.88405 10.3051 1.99169 8.99191C2.06345 8.15233 2.38636 7.45626 2.98197 6.86066L5.42896 4.41367C5.78058 4.08357 6.15373 3.90418 6.5197 3.90418C6.97179 3.90418 7.33776 4.17686 7.56739 4.40649C7.57456 4.41367 7.58174 4.42084 7.58891 4.42802C8.02665 4.83705 8.44285 5.26043 8.88058 5.71251C9.10304 5.94214 9.33267 6.17177 9.5623 6.40858L11.5213 8.36761C12.282 9.12826 12.282 9.8315 11.5213 10.5921C11.3132 10.8002 11.1123 11.0083 10.9042 11.2093C10.3014 11.8264 9.72734 12.4005 9.10304 12.9602C9.08869 12.9746 9.07433 12.9817 9.06716 12.9961C8.45003 13.6132 8.56484 14.216 8.69401 14.625C8.70118 14.6465 8.70836 14.6681 8.71554 14.6896C9.22503 15.9239 9.94262 17.0864 11.0334 18.4713L11.0405 18.4785C13.0211 20.9183 15.1093 22.8199 17.4128 24.2766C17.707 24.4632 18.0084 24.6139 18.2954 24.7574C18.5537 24.8866 18.7977 25.0086 19.0058 25.1378C19.0345 25.1521 19.0632 25.1736 19.0919 25.188C19.3359 25.31 19.5655 25.3674 19.8024 25.3674C20.398 25.3674 20.7711 24.9942 20.8931 24.8722L23.3473 22.4181C23.5912 22.1741 23.9787 21.8799 24.4308 21.8799C24.8757 21.8799 25.2417 22.1597 25.4642 22.4037C25.4713 22.4109 25.4713 22.4109 25.4785 22.4181L29.4325 26.372C30.1716 27.104 30.1716 27.8574 29.4396 28.6181Z" fill="white" fill-opacity="0.87"/>
        <path d="M18.3743 8.08766C20.2544 8.4034 21.9623 9.29322 23.3257 10.6566C24.6891 12.0201 25.5718 13.7279 25.8947 15.608C25.9736 16.0816 26.3826 16.4117 26.8491 16.4117C26.9065 16.4117 26.9567 16.4046 27.0141 16.3974C27.5451 16.3113 27.8968 15.809 27.8107 15.2779C27.4232 13.0032 26.3468 10.9293 24.7035 9.28604C23.0602 7.64275 20.9863 6.56636 18.7116 6.17886C18.1806 6.09275 17.6854 6.44437 17.5921 6.96822C17.4988 7.49206 17.8433 8.00155 18.3743 8.08766Z" fill="white" fill-opacity="0.87"/>
        <path d="M33.9606 14.9981C33.322 11.2523 31.5567 7.84371 28.8442 5.13121C26.1317 2.41871 22.7231 0.653427 18.9773 0.0147691C18.4534 -0.078518 17.9583 0.280279 17.865 0.804122C17.7789 1.33514 18.1305 1.83028 18.6615 1.92357C22.0055 2.49047 25.0553 4.07635 27.4808 6.49464C29.9062 8.9201 31.4849 11.9699 32.0518 15.3139C32.1308 15.7875 32.5398 16.1176 33.0062 16.1176C33.0636 16.1176 33.1139 16.1104 33.1713 16.1032C33.6951 16.0243 34.0539 15.522 33.9606 14.9981Z" fill="white" fill-opacity="0.87"/>
    </g>
    <defs>
        <clipPath id="clip0_184_261">
            <rect width="34" height="34" fill="white"/>
        </clipPath>
    </defs>
</svg>
