<svg width="35" height="48" viewBox="0 0 35 48" fill="none" xmlns="http://www.w3.org/2000/svg">
    <path d="M3.04193 38.7944H6.08463C6.5047 38.7944 6.8453 38.4538 6.8453 38.0337C6.8453 37.6136 6.5047 37.273 6.08463 37.273H3.8026V23.5809C3.8026 23.1608 3.462 22.8202 3.04193 22.8202C2.62185 22.8202 2.28125 23.1608 2.28125 23.5809V38.0337C2.28125 38.4538 2.62185 38.7944 3.04193 38.7944Z" fill="#2B51B5"/>
    <path d="M8.3681 38.7944H9.12877C9.54885 38.7944 9.88945 38.4538 9.88945 38.0337C9.88945 37.6136 9.54885 37.273 9.12877 37.273H8.3681C7.94802 37.273 7.60742 37.6136 7.60742 38.0337C7.60742 38.4538 7.94802 38.7944 8.3681 38.7944Z" fill="#2B51B5"/>
    <path d="M34.231 17.4955H22.0602C21.6401 17.4955 21.2995 17.8361 21.2995 18.2562V28.9057C21.3047 31.8035 23.1321 34.3849 25.8635 35.3525V42.2387C25.8669 43.1041 25.3777 43.8956 24.6022 44.2796L21.7203 45.7204C21.4042 45.8779 21.2382 46.2322 21.3192 46.5758C21.4002 46.9193 21.707 47.1622 22.0602 47.1619H34.231C34.5872 47.166 34.8984 46.9223 34.9801 46.5754C35.0615 46.2289 34.8917 45.8719 34.5712 45.7167L31.689 44.2759C30.9149 43.8922 30.4257 43.1026 30.4276 42.2387V35.3525C33.159 34.3849 34.9865 31.8035 34.9917 28.9057V18.2562C34.9917 17.8361 34.6511 17.4955 34.231 17.4955ZM33.4703 19.0169V22.7571H22.8208V19.0169H33.4703ZM31.0089 45.6405H25.2823C26.5745 45.0002 27.3897 43.6809 27.3849 42.2387V35.7068C27.8904 35.7666 28.4007 35.7666 28.9062 35.7068V42.2387C28.9014 43.6809 29.7167 45.0002 31.0089 45.6405ZM28.1456 34.2304C25.2061 34.2271 22.8242 31.8451 22.8208 28.9057V24.2785H33.4703V28.9057C33.467 31.8451 31.085 34.2271 28.1456 34.2304Z" fill="#2B51B5"/>
    <path d="M31.1881 25.1022C30.7681 25.1022 30.4275 25.4428 30.4275 25.8629V28.9056C30.4256 29.7302 29.9806 30.4901 29.2623 30.895C28.8961 31.1011 28.7668 31.5654 28.9733 31.9312C29.1799 32.2971 29.6441 32.4263 30.01 32.2198C31.206 31.5449 31.9466 30.2788 31.9488 28.9056V25.8629C31.9488 25.4428 31.6082 25.1022 31.1881 25.1022Z" fill="#2B51B5"/>
    <path d="M14.2946 14.8332C13.4507 14.4866 12.9084 13.6554 12.9315 12.7435V4.56405H13.0113C13.8065 4.56182 14.4506 3.91777 14.4528 3.12256V1.44521C14.4528 0.648505 13.808 0.00222854 13.0113 0H5.24858C4.45039 0 3.80338 0.64702 3.80338 1.44521V3.12627C3.80746 3.92149 4.45337 4.56405 5.24858 4.56405H5.32473V12.7435C5.34775 13.6554 4.80548 14.4866 3.9616 14.8332C1.58412 15.7272 0.00705705 17.9981 0 20.5382V46.4012C0 46.8213 0.340595 47.1619 0.760675 47.1619H17.4955C17.9156 47.1619 18.2562 46.8213 18.2562 46.4012V20.5382C18.2491 17.9981 16.6721 15.7272 14.2946 14.8332ZM5.32473 1.52135H12.9315V3.0427H5.32473V1.52135ZM16.7348 39.5551H1.52135V22.0596H16.7348V39.5551ZM1.52135 45.6405V41.0765H16.7348V45.6405H1.52135ZM1.52135 20.5382C1.52692 18.6332 2.7099 16.9298 4.49348 16.2594C5.93126 15.6893 6.86725 14.2901 6.84608 12.7435V4.56405H11.4101V12.7435C11.389 14.2901 12.3253 15.6893 13.7631 16.2594C15.5463 16.9298 16.7293 18.6332 16.7348 20.5382H1.52135Z" fill="#2B51B5"/>
</svg>
