<svg width="34" height="45" viewBox="0 0 34 45" fill="none" xmlns="http://www.w3.org/2000/svg">
    <path d="M23.0677 18.7788H20.2493V15.9604C20.2493 15.3189 19.7292 14.7989 19.0878 14.7989H14.9048C14.2665 14.8034 13.7514 15.3221 13.7514 15.9604V18.7788H10.933C10.2915 18.7788 9.77148 19.2989 9.77148 19.9403V24.1314C9.78042 24.7666 10.2978 25.2768 10.933 25.2767H13.7514V28.0951C13.7514 28.7366 14.2714 29.2566 14.9129 29.2566H19.104C19.7392 29.2477 20.2494 28.7303 20.2493 28.0951V25.2767H23.0596C23.701 25.2767 24.2211 24.7566 24.2211 24.1152V19.9322C24.2166 19.297 23.7029 18.7833 23.0677 18.7788ZM22.6047 23.6522H19.437C18.9885 23.6522 18.6248 24.0159 18.6248 24.4644V27.6321H15.3759V24.4644C15.3759 24.0159 15.0122 23.6522 14.5637 23.6522H11.3959V20.4033H14.5637C15.0122 20.4033 15.3759 20.0396 15.3759 19.5911V16.4234H18.6248V19.5911C18.6248 20.0396 18.9885 20.4033 19.437 20.4033H22.6047V23.6522Z" fill="#2B51B5"/>
    <path d="M32.2781 2.37984H25.5284V1.72193C25.5284 0.770909 24.7575 0 23.8065 0H11.1032C10.1522 0 9.38127 0.770909 9.38127 1.72193V2.42045H1.72193C0.770909 2.42045 0 3.19136 0 4.14238V42.3335C0 43.2845 0.770909 44.0554 1.72193 44.0554H32.2781C33.2291 44.0554 34 43.2845 34 42.3335V4.10177C34 3.15075 33.2291 2.37984 32.2781 2.37984ZM11.0057 7.13139V1.72193C11.0057 1.66812 11.0494 1.62446 11.1032 1.62446H23.8065C23.8603 1.62446 23.904 1.66812 23.904 1.72193V3.19207V8.63402C23.904 8.68783 23.8603 8.73149 23.8065 8.73149H11.1032C11.0494 8.73149 11.0057 8.68783 11.0057 8.63402V7.13139ZM11.0951 10.3884H23.8065C24.7575 10.3884 25.5284 9.61753 25.5284 8.66651V7.96799H28.4443V38.5322H12.4434V31.5227C12.4434 31.0741 12.0797 30.7105 11.6312 30.7105H5.55566V7.96799H9.37315V8.66651C9.37315 9.61753 10.1441 10.3884 11.0951 10.3884ZM10.8189 32.3349V37.2083L6.54658 32.3349H10.8189ZM32.3755 42.3335C32.3755 42.3873 32.3319 42.431 32.2781 42.431H1.72193C1.66812 42.431 1.62446 42.3873 1.62446 42.3335V4.10177C1.62446 4.04796 1.66812 4.0043 1.72193 4.0043H9.38127V6.31104H4.75155C4.303 6.31104 3.93932 6.67471 3.93932 7.12327V31.4902C3.96074 31.585 3.98247 31.6798 4.0043 31.7745C4.02836 31.829 4.05831 31.8808 4.09365 31.9288C4.1103 31.9626 4.12928 31.9951 4.1505 32.0263L11.022 39.8968C11.0836 39.9593 11.1549 40.0114 11.2332 40.0511H11.29C11.3927 40.0949 11.5033 40.117 11.6149 40.1161H29.2403C29.6889 40.1161 30.0526 39.7524 30.0526 39.3039V7.13139C30.0526 6.68284 29.6889 6.31916 29.2403 6.31916H25.5284V4.0043H32.2781C32.3319 4.0043 32.3755 4.04796 32.3755 4.10177V42.3335Z" fill="#2B51B5"/>
</svg>
