<svg width="40" height="40" viewBox="0 0 40 40" fill="none" xmlns="http://www.w3.org/2000/svg">
    <path d="M21.4959 5.46073C21.148 5.13027 20.6001 5.13891 20.2696 5.4781C19.9478 5.81728 19.9478 6.34783 20.2696 6.68701L22.1743 8.59167L4.86712 25.9075C4.13657 26.6381 4.37139 27.4296 4.5453 28.0036C4.58012 28.1079 4.61485 28.221 4.64094 28.3515L5.84114 32.9348L0.266436 38.5096C-0.0814731 38.84 -0.0901158 39.3967 0.249069 39.7359C0.588254 40.075 1.13617 40.0924 1.47535 39.7532C1.48408 39.7445 1.49272 39.7359 1.49272 39.7359L7.04141 34.1958L11.6856 35.396C11.8161 35.4221 11.9465 35.4655 12.0596 35.4916C12.3466 35.5873 12.6424 35.6395 12.9467 35.6482C13.3816 35.6569 13.799 35.4743 14.1035 35.1612L31.4106 17.8454L33.3066 19.7413C33.6545 20.0718 34.2024 20.0631 34.5328 19.7239C34.8547 19.3848 34.8547 18.8542 34.5328 18.515L21.4959 5.46073ZM12.938 33.9088C12.9032 33.9001 12.6771 33.8566 12.5379 33.8132C12.3987 33.7697 12.2335 33.7262 12.0944 33.7001L7.67624 32.5608C7.65015 32.5086 7.62406 32.4651 7.58924 32.4216C7.56315 32.3955 7.52834 32.3781 7.4936 32.3607L6.3195 27.9252C6.28469 27.7774 6.24123 27.6469 6.20641 27.5251C6.16295 27.3686 6.10205 27.1598 6.09332 27.1425L7.74579 25.4814L10.7028 28.4384C11.0507 28.7688 11.5986 28.7602 11.9291 28.421C12.2509 28.0818 12.2509 27.5513 11.9291 27.2121L8.97207 24.2551L11.3376 21.8808C11.3637 22.0547 11.442 22.22 11.5637 22.3504L13.3031 24.0898C13.651 24.4203 14.1989 24.4116 14.5294 24.0724C14.8512 23.7333 14.8512 23.2027 14.5294 22.8635L12.79 21.1241C12.6596 21.0024 12.503 20.9241 12.3204 20.898L14.8078 18.4107C14.8339 18.5846 14.9121 18.7498 15.0339 18.8803L17.643 21.4894C17.9909 21.8199 18.5388 21.8112 18.8693 21.472C19.1911 21.1329 19.1911 20.6023 18.8693 20.2631L16.2601 17.654C16.1297 17.5323 15.9644 17.454 15.7905 17.4279L17.7212 15.4885L19.3737 17.1409C19.7216 17.4714 20.2695 17.4627 20.6 17.1236C20.9218 16.7844 20.9218 16.2538 20.6 15.9146L18.9475 14.2622L20.7652 12.4445L22.8525 14.5318C23.2004 14.8623 23.7483 14.8536 24.0788 14.5144C24.4006 14.1753 24.4006 13.6447 24.0788 13.3055L21.9915 11.2182L23.3743 9.8354L30.158 16.6191L12.938 33.9088Z" fill="white"/>
    <path d="M39.7598 8.9396L31.0629 0.242528C30.7149 -0.0879323 30.167 -0.0792896 29.8366 0.259895C29.5148 0.59908 29.5148 1.12963 29.8366 1.46881L31.8282 3.46911L27.2274 8.06987C26.8795 8.40033 26.8708 8.95697 27.21 9.29616C27.5405 9.64406 28.0971 9.65271 28.4363 9.31352C28.445 9.3048 28.4537 9.29616 28.4537 9.29616L33.0544 4.69539L35.307 6.94795L30.7062 11.5487C30.3583 11.8792 30.3497 12.4358 30.6889 12.775C31.0193 13.1229 31.576 13.1316 31.9151 12.7924C31.9239 12.7836 31.9325 12.775 31.9325 12.775L36.5333 8.17424L38.5249 10.1659C38.8728 10.4963 39.4207 10.4877 39.7512 10.1485C40.0817 9.80934 40.0817 9.27879 39.7598 8.9396Z" fill="white"/>
</svg>
