<svg width="40" height="40" viewBox="0 0 40 40" fill="none" xmlns="http://www.w3.org/2000/svg">
    <path d="M35.5469 6.40625H35.1562V4.29688C35.1562 1.92758 33.2287 0 30.8594 0H8.98438C6.61508 0 4.6875 1.92758 4.6875 4.29688V6.40625H4.29688C1.92758 6.40625 0 8.33383 0 10.7031V38.8281C0 39.4753 0.524687 40 1.17188 40H38.6719C39.3191 40 39.8438 39.4753 39.8438 38.8281V10.7031C39.8438 8.33383 37.9162 6.40625 35.5469 6.40625ZM7.03125 4.29688C7.03125 3.21992 7.90742 2.34375 8.98438 2.34375H30.8594C31.9363 2.34375 32.8125 3.21992 32.8125 4.29688V6.40625H7.03125V4.29688ZM25 8.75V23.5938H14.8438V8.75H25ZM2.34375 10.7031C2.34375 9.62617 3.21992 8.75 4.29688 8.75H12.5V23.5938H2.34375V10.7031ZM22.2656 32.9688C21.6195 32.9688 21.0938 32.443 21.0938 31.7969C21.0938 31.1507 21.6195 30.625 22.2656 30.625C22.9118 30.625 23.4375 31.1507 23.4375 31.7969C23.4375 32.443 22.9118 32.9688 22.2656 32.9688ZM31.6406 32.9688C30.9945 32.9688 30.4688 32.443 30.4688 31.7969C30.4688 31.1507 30.9945 30.625 31.6406 30.625C32.2868 30.625 32.8125 31.1507 32.8125 31.7969C32.8125 32.443 32.2868 32.9688 31.6406 32.9688ZM37.5 37.6562H32.8125V35.1109C34.1765 34.6272 35.1562 33.3246 35.1562 31.7969C35.1562 29.8584 33.5791 28.2812 31.6406 28.2812C29.7021 28.2812 28.125 29.8584 28.125 31.7969C28.125 33.3246 29.1048 34.6272 30.4688 35.1109V37.6562H23.4375V35.1109C24.8015 34.6272 25.7812 33.3246 25.7812 31.7969C25.7812 29.8584 24.2041 28.2812 22.2656 28.2812C20.3271 28.2812 18.75 29.8584 18.75 31.7969C18.75 33.3246 19.7298 34.6272 21.0938 35.1109V37.6562H2.34375V25.9375H37.5V37.6562ZM37.5 23.5938H27.3438V8.75H35.5469C36.6238 8.75 37.5 9.62617 37.5 10.7031V23.5938Z" fill="white"/>
    <path d="M5.85938 35.3125H15.2344C15.8816 35.3125 16.4062 34.7878 16.4062 34.1406V29.4531C16.4062 28.8059 15.8816 28.2812 15.2344 28.2812H5.85938C5.21219 28.2812 4.6875 28.8059 4.6875 29.4531V34.1406C4.6875 34.7878 5.21219 35.3125 5.85938 35.3125ZM7.03125 30.625H14.0625V32.9687H7.03125V30.625Z" fill="white"/>
    <path d="M17.9865 13.6328H20.3585L17.8697 19.2945C17.6527 19.7882 17.877 20.3644 18.3707 20.5815C18.4986 20.6378 18.632 20.6644 18.7631 20.6644C19.1387 20.6644 19.4969 20.4465 19.6577 20.0805L22.7485 13.0493C22.8812 12.7473 22.8526 12.3987 22.6723 12.1225C22.4919 11.8463 22.1844 11.6797 21.8545 11.6797H17.9863C17.447 11.6797 17.0098 12.117 17.0098 12.6563C17.0098 13.1956 17.4472 13.6328 17.9865 13.6328Z" fill="white"/>
    <path d="M9.35641 11.6797H5.48828C4.94898 11.6797 4.51172 12.117 4.51172 12.6562C4.51172 13.1955 4.94898 13.6328 5.48828 13.6328H7.86031L5.37148 19.2945C5.15445 19.7882 5.37875 20.3645 5.8725 20.5816C6.00039 20.6378 6.13375 20.6644 6.26492 20.6644C6.64055 20.6644 6.99867 20.4465 7.15945 20.0805L10.2503 13.0493C10.383 12.7473 10.3544 12.3987 10.1741 12.1225C9.99383 11.8462 9.68633 11.6797 9.35641 11.6797Z" fill="white"/>
    <path d="M34.3564 11.6797H30.4883C29.949 11.6797 29.5117 12.117 29.5117 12.6562C29.5117 13.1955 29.949 13.6328 30.4883 13.6328H32.8603L30.3715 19.2945C30.1545 19.7882 30.3787 20.3645 30.8725 20.5816C31.0004 20.6378 31.1338 20.6644 31.2649 20.6644C31.6405 20.6644 31.9987 20.4465 32.1595 20.0805L35.2503 13.0493C35.383 12.7473 35.3544 12.3987 35.1741 12.1225C34.9938 11.8462 34.6863 11.6797 34.3564 11.6797Z" fill="white"/>
</svg>
