<svg xmlns="http://www.w3.org/2000/svg" display="none">

    <symbol id="location" viewBox="0 0 15 24">
        <path d="M7.51699 0H7.48289C3.35675 0 0 3.37076 0 7.51393C0 10.2298 1.23129 13.814 3.65964 18.1673C5.46001 21.3947 7.28562 23.8665 7.30391 23.891C7.35473 23.9596 7.43482 24 7.51969 24C7.5221 24 7.52457 24 7.52698 23.9999C7.61454 23.9975 7.69536 23.9524 7.74393 23.8791C7.76194 23.8518 9.57454 21.1022 11.3627 17.7391C13.7762 13.2 15 9.75964 15 7.51393C14.9998 3.37071 11.643 0 7.51699 0ZM10.971 7.69755C10.971 9.62019 9.4139 11.1843 7.49989 11.1843C5.58593 11.1843 4.02882 9.62014 4.02882 7.69755C4.02882 5.77497 5.58593 4.21083 7.49989 4.21083C9.4139 4.21083 10.971 5.77497 10.971 7.69755Z"/>
    </symbol>

    <symbol id="phone" viewBox="0 0 18 19">
        <path d="M17.528 13.9441L15.0108 11.2926C14.1117 10.3456 12.5834 10.7244 12.2238 11.9554C11.9541 12.8077 11.0551 13.2812 10.246 13.0918C8.44795 12.6183 6.02061 10.1562 5.57111 8.16758C5.3014 7.31527 5.84081 6.36831 6.64992 6.08425C7.81864 5.70547 8.17825 4.09563 7.27923 3.14866L4.76199 0.497157C4.04278 -0.165719 2.96397 -0.165719 2.33466 0.497157L0.626529 2.29639C-1.0816 4.19032 0.806332 9.20924 5.0317 13.66C9.25706 18.1107 14.0218 20.1941 15.8199 18.3001L17.528 16.5009C18.1573 15.7433 18.1573 14.6069 17.528 13.9441Z"/>
    </symbol>

    <symbol id="arrow-bottom" viewBox="0 0 17 9">
        <path d="M8.9665 8.81012L16.8078 1.10229C17.0645 0.849749 17.0641 0.440885 16.8064 0.18877C16.5488 -0.06315 16.1315 -0.062499 15.8745 0.190072L8.49997 7.43911L1.12545 0.18981C0.868458 -0.0627276 0.451395 -0.0633786 0.193741 0.188508C0.0645809 0.314891 -2.10017e-08 0.480462 -2.8239e-08 0.646032C-3.54578e-08 0.81118 0.0641479 0.976099 0.192411 1.10225L8.03347 8.81012C8.15692 8.93175 8.32492 9 8.49997 9C8.67501 9 8.84282 8.93155 8.9665 8.81012Z"/>
    </symbol>

    <symbol id="arrow-left" viewBox="0 0 21 34">
        <path d="M0.44306 17.933L18.428 33.6155C19.0173 34.129 19.9713 34.1282 20.5595 33.6129C21.1473 33.0976 21.1458 32.263 20.5565 31.749L3.64208 16.9999L20.5571 2.2509C21.1464 1.73692 21.1479 0.90279 20.5601 0.387482C20.2652 0.129162 19.8789 9.80079e-08 19.4926 1.31782e-07C19.1072 1.6547e-07 18.7224 0.128296 18.4281 0.384823L0.44306 16.0669C0.159254 16.3138 -1.5168e-06 16.6498 -1.48619e-06 16.9999C-1.45559e-06 17.35 0.15971 17.6856 0.44306 17.933Z"/>
    </symbol>

    <symbol id="arrow-right" viewBox="0 0 21 34">
        <path d="M20.5569 16.067L2.572 0.384484C1.98275 -0.129034 1.02873 -0.128171 0.440462 0.38714C-0.14735 0.902384 -0.145831 1.73704 0.4435 2.25096L17.3579 17.0001L0.442893 31.7491C-0.146363 32.2631 -0.147882 33.0972 0.439855 33.6125C0.734748 33.8708 1.12108 34 1.50741 34C1.89275 34 2.27757 33.8717 2.57193 33.6152L20.5569 17.9331C20.8407 17.6862 21 17.3502 21 17.0001C21 16.65 20.8403 16.3144 20.5569 16.067Z"/>
    </symbol>

    <symbol id="next" viewBox="0 0 10 29">
        <path d="M9.78902 15.2958L1.22476 28.6721C0.944166 29.1101 0.489872 29.1093 0.209744 28.6698C-0.0701666 28.2303 -0.0694433 27.5184 0.211191 27.0801L8.26568 14.4999L0.210901 1.91989C-0.0696966 1.48149 -0.0704199 0.770029 0.209455 0.3305C0.34988 0.110168 0.533847 0 0.717815 0C0.901312 0 1.08456 0.109432 1.22473 0.328234L9.78902 13.7041C9.92416 13.9147 10 14.2013 10 14.4999C10 14.7986 9.92395 15.0848 9.78902 15.2958Z"/>
    </symbol>

    <symbol id="prev" viewBox="0 0 10 29">
        <path d="M0.21098 13.7042L8.77524 0.327942C9.05583 -0.110059 9.51013 -0.109322 9.79026 0.330207C10.0702 0.76968 10.0694 1.48159 9.78881 1.91993L1.73432 14.5001L9.7891 27.0801C10.0697 27.5185 10.0704 28.23 9.79054 28.6695C9.65012 28.8898 9.46615 29 9.28218 29C9.09869 29 8.91544 28.8906 8.77527 28.6718L0.21098 15.2958C0.0758349 15.0853 -1.29374e-06 14.7987 -1.26764e-06 14.5001C-1.24153e-06 14.2014 0.0760524 13.9152 0.21098 13.7042Z"/>
    </symbol>

    <symbol id="right" viewBox="0 0 36 8">
        <path d="M35.3536 4.35355C35.5488 4.15829 35.5488 3.84171 35.3536 3.64645L32.1716 0.464466C31.9763 0.269204 31.6597 0.269204 31.4645 0.464466C31.2692 0.659728 31.2692 0.976311 31.4645 1.17157L34.2929 4L31.4645 6.82843C31.2692 7.02369 31.2692 7.34027 31.4645 7.53553C31.6597 7.7308 31.9763 7.7308 32.1716 7.53553L35.3536 4.35355ZM0 4.5H35V3.5H0V4.5Z"/>
    </symbol>


    <symbol id="star" viewBox="0 0 38 37">
        <path d="M34.6403 14.5176C35.3204 13.8546 35.5605 12.8817 35.2671 11.9784C34.9736 11.0752 34.2074 10.4293 33.2676 10.2928L25.0494 9.09858C24.8881 9.07518 24.7486 8.97387 24.6764 8.8276L21.0011 1.38073C20.5809 0.529053 19.7298 0 18.78 0C17.8303 0 16.9792 0.529053 16.5589 1.38073L12.8836 8.82767C12.8114 8.97387 12.672 9.07518 12.5106 9.09865L4.29255 10.2928C3.3527 10.4293 2.58663 11.0752 2.29305 11.9784C1.99948 12.8817 2.23965 13.8546 2.91982 14.5176L8.86653 20.3142C8.98324 20.428 9.03657 20.592 9.00899 20.7527L7.60515 28.9376C7.44464 29.8737 7.82214 30.8019 8.59048 31.3602C9.35883 31.9186 10.3585 31.9907 11.1991 31.5488L18.5495 27.6845C18.6939 27.6085 18.8662 27.6085 19.0107 27.6845L26.3612 31.5488C26.7268 31.741 27.1224 31.836 27.5162 31.836C28.0275 31.836 28.5355 31.6758 28.9696 31.3601C29.7379 30.8018 30.1155 29.8735 29.9549 28.9375L28.5511 20.7526C28.5236 20.5919 28.5768 20.428 28.6935 20.3141L34.6403 14.5176ZM26.5982 21.0877L28.0021 29.2728C28.049 29.5467 27.8799 29.7029 27.805 29.7572C27.7301 29.8115 27.5292 29.9243 27.2833 29.7949L19.9328 25.9305C19.5719 25.7409 19.1761 25.6459 18.7802 25.6459C18.3843 25.6459 17.9884 25.7409 17.6276 25.9304L10.2771 29.7947C10.0311 29.9241 9.8303 29.8115 9.7554 29.7571C9.6805 29.7027 9.51134 29.5466 9.55836 29.2726L10.9622 21.0877C11.1 20.2841 10.8338 19.4646 10.2498 18.8954L4.30312 13.0988C4.1041 12.9046 4.14914 12.6789 4.17782 12.5909C4.20636 12.5028 4.30268 12.2937 4.57769 12.2538L12.7957 11.0596C13.6025 10.9423 14.2998 10.4359 14.6607 9.70458L18.336 2.25764C18.459 2.00845 18.6876 1.98153 18.7803 1.98153C18.8728 1.98153 19.1013 2.00838 19.2244 2.25764V2.25772L22.8997 9.70466C23.2606 10.436 23.9577 10.9424 24.7646 11.0596L32.9827 12.2538C33.2578 12.2937 33.354 12.5029 33.3826 12.591C33.4112 12.6791 33.4563 12.9049 33.2572 13.0988L27.3105 18.8954C26.7266 19.4646 26.4604 20.2841 26.5982 21.0877Z"
              fill="#2B51B5"/>
        <path d="M30.3534 1.37997C29.9106 1.05837 29.2911 1.15652 28.9695 1.59916L27.9178 3.04665C27.5962 3.48928 27.6943 4.10893 28.137 4.43053C28.313 4.55825 28.5167 4.61979 28.7186 4.61979C29.025 4.61979 29.3271 4.47814 29.5209 4.21141L30.5726 2.76393C30.8942 2.32122 30.7961 1.70157 30.3534 1.37997Z"
              fill="#2B51B5"/>
        <path d="M9.63606 3.04132L8.58433 1.59384C8.26281 1.15134 7.64323 1.05319 7.20045 1.37464C6.75781 1.69624 6.65966 2.31589 6.98126 2.75853L8.03298 4.20602C8.22686 4.47296 8.52895 4.61454 8.83544 4.61454C9.03739 4.61454 9.24117 4.553 9.41694 4.42521C9.85958 4.10368 9.95773 3.48403 9.63606 3.04132Z"
              fill="#2B51B5"/>
        <path d="M3.63499 22.2288C3.4659 21.7085 2.90699 21.4236 2.38652 21.5927L0.684849 22.1457C0.164379 22.3148 -0.120321 22.8738 0.0487678 23.3941C0.184772 23.8129 0.573199 24.0791 0.990822 24.0791C1.09228 24.0791 1.19549 24.0633 1.29724 24.0302L2.9989 23.4772C3.5193 23.3082 3.80407 22.7493 3.63499 22.2288Z"
              fill="#2B51B5"/>
        <path d="M18.7791 33.2292C18.2319 33.2292 17.7883 33.6728 17.7883 34.22V36.0093C17.7883 36.5565 18.2319 37.0001 18.7791 37.0001C19.3263 37.0001 19.7699 36.5565 19.7699 36.0093V34.22C19.7699 33.6728 19.3263 33.2292 18.7791 33.2292Z"
              fill="#2B51B5"/>
        <path d="M36.8744 22.1471L35.1727 21.5941C34.6525 21.4251 34.0933 21.7098 33.9243 22.2302C33.7552 22.7507 34.0399 23.3096 34.5603 23.4787L36.262 24.0317C36.3638 24.0647 36.4669 24.0804 36.5683 24.0804C36.986 24.0804 37.3745 23.8142 37.5105 23.3954C37.6796 22.875 37.3948 22.3161 36.8744 22.1471Z"
              fill="#2B51B5"/>
    </symbol>


    <symbol id="close" viewBox="0 0 26 26">
        <path d="M15.8199 12.9999L24.4199 4.41994C24.7965 4.04333 25.0081 3.53254 25.0081 2.99994C25.0081 2.46734 24.7965 1.95655 24.4199 1.57994C24.0433 1.20333 23.5325 0.991756 22.9999 0.991756C22.4673 0.991756 21.9565 1.20333 21.5799 1.57994L12.9999 10.1799L4.41988 1.57994C4.04327 1.20333 3.53248 0.991756 2.99988 0.991756C2.46727 0.991756 1.95649 1.20333 1.57988 1.57994C1.20327 1.95655 0.991694 2.46734 0.991694 2.99994C0.991694 3.53254 1.20327 4.04333 1.57988 4.41994L10.1799 12.9999L1.57988 21.5799C1.39242 21.7659 1.24363 21.9871 1.1421 22.2308C1.04056 22.4745 0.988281 22.7359 0.988281 22.9999C0.988281 23.264 1.04056 23.5254 1.1421 23.7691C1.24363 24.0128 1.39242 24.234 1.57988 24.4199C1.7658 24.6074 1.98701 24.7562 2.23072 24.8577C2.47444 24.9593 2.73585 25.0115 2.99988 25.0115C3.2639 25.0115 3.52531 24.9593 3.76903 24.8577C4.01275 24.7562 4.23395 24.6074 4.41988 24.4199L12.9999 15.8199L21.5799 24.4199C21.7658 24.6074 21.987 24.7562 22.2307 24.8577C22.4744 24.9593 22.7359 25.0115 22.9999 25.0115C23.2639 25.0115 23.5253 24.9593 23.769 24.8577C24.0128 24.7562 24.2339 24.6074 24.4199 24.4199C24.6073 24.234 24.7561 24.0128 24.8577 23.7691C24.9592 23.5254 25.0115 23.264 25.0115 22.9999C25.0115 22.7359 24.9592 22.4745 24.8577 22.2308C24.7561 21.9871 24.6073 21.7659 24.4199 21.5799L15.8199 12.9999Z"/>
    </symbol>

    <symbol id="mail" viewBox="0 0 22 15">
        <path d="M12.9535 8.26928L11.062 9.51516C10.9497 9.58868 10.8227 9.62477 10.6944 9.62477C10.5661 9.62477 10.4391 9.58868 10.3268 9.51516L8.43525 8.26794L0.0429688 13.5763C0.1459 14.2112 0.67259 14.7045 1.33697 14.7045H20.0518C20.7162 14.7045 21.2429 14.2112 21.3458 13.5763L12.9535 8.26928Z"/>
        <path d="M14.1777 7.46187L21.3883 12.0203V2.71097L14.1777 7.46187Z"/>
        <path d="M0 2.71097V12.0203L7.21057 7.46187L0 2.71097Z"/>
        <path d="M20.0506 0H1.33573C0.668684 0 0.139321 0.497281 0.0390625 1.1376L10.6932 8.15701L21.3473 1.1376C21.247 0.497281 20.7176 0 20.0506 0Z"/>
    </symbol>

</svg>