<svg width="45" height="64" viewBox="0 0 45 64" fill="none" xmlns="http://www.w3.org/2000/svg">
    <path d="M17.01 48.8079H2.19968C1.84421 48.8079 1.5033 48.6667 1.25194 48.4153C1.00059 48.164 0.859375 47.8231 0.859375 47.4676V44.1579C0.859375 43.8025 1.00059 43.4616 1.25194 43.2102C1.5033 42.9588 1.84421 42.8176 2.19968 42.8176H17.01C17.3655 42.8176 17.7064 42.9588 17.9578 43.2102C18.2091 43.4616 18.3503 43.8025 18.3503 44.1579V47.4694C18.3499 47.8245 18.2084 48.165 17.9571 48.416C17.7058 48.6669 17.3652 48.8079 17.01 48.8079ZM2.64555 47.0208H16.5615V44.6083H2.64645L2.64555 47.0208Z" fill="white"/>
    <path d="M31.6119 63.5162H14.0539C13.5359 63.5155 13.0293 63.3642 12.5958 63.0807C12.1623 62.7973 11.8206 62.3939 11.6123 61.9196C11.4039 61.4454 11.338 60.9208 11.4225 60.4098C11.507 59.8988 11.7382 59.4233 12.0881 59.0414L16.2466 54.5067C16.326 54.4202 16.4215 54.3502 16.5279 54.3007C16.6343 54.2511 16.7494 54.223 16.8666 54.218C16.9839 54.2129 17.101 54.231 17.2112 54.2712C17.3215 54.3114 17.4227 54.3729 17.5092 54.4522C17.5957 54.5315 17.6657 54.6271 17.7152 54.7335C17.7648 54.8399 17.7929 54.9549 17.7979 55.0722C17.803 55.1894 17.7849 55.3065 17.7447 55.4168C17.7045 55.527 17.643 55.6283 17.5637 55.7148L13.4052 60.2495C13.2898 60.3758 13.2136 60.5328 13.1857 60.7016C13.1579 60.8704 13.1796 61.0436 13.2483 61.2003C13.317 61.3569 13.4297 61.4903 13.5727 61.5842C13.7157 61.6781 13.8828 61.7284 14.0539 61.7291H31.6119C31.7833 61.7292 31.9509 61.6793 32.0945 61.5856C32.238 61.4919 32.3511 61.3585 32.4201 61.2016C32.4891 61.0447 32.5109 60.8711 32.4829 60.7021C32.4549 60.533 32.3782 60.3757 32.2624 60.2495L28.1048 55.7148C27.9446 55.54 27.8603 55.3087 27.8706 55.0719C27.881 54.835 27.9849 54.6119 28.1597 54.4517C28.3345 54.2915 28.5657 54.2073 28.8026 54.2176C29.0395 54.2279 29.2625 54.3319 29.4227 54.5067L33.5794 59.0414C33.9298 59.4233 34.1615 59.8989 34.2461 60.4103C34.3308 60.9216 34.2648 61.4465 34.0562 61.921C33.8475 62.3954 33.5053 62.7989 33.0713 63.0822C32.6373 63.3654 32.1302 63.5163 31.6119 63.5162Z" fill="white"/>
    <path d="M22.8307 56.9622C19.6349 56.9606 16.4873 56.1825 13.6588 54.695C10.8304 53.2074 8.40564 51.0549 6.59335 48.4227C6.52676 48.326 6.47985 48.2172 6.45531 48.1025C6.43077 47.9877 6.42907 47.8693 6.45031 47.7538C6.47155 47.6384 6.51531 47.5283 6.5791 47.4298C6.6429 47.3313 6.72546 47.2464 6.82209 47.1798C6.91872 47.1132 7.02752 47.0663 7.14228 47.0417C7.25704 47.0172 7.37551 47.0155 7.49092 47.0367C7.60634 47.058 7.71644 47.1017 7.81494 47.1655C7.91344 47.2293 7.99841 47.3119 8.065 47.4085C9.48845 49.4834 11.3332 51.235 13.479 52.5491C15.6248 53.8632 18.0235 54.7103 20.5186 55.0352C23.0138 55.3601 25.5494 55.1555 27.9602 54.4347C30.3709 53.7139 32.6027 52.4931 34.5101 50.8519C36.4174 49.2107 37.9574 47.186 39.0297 44.9097C40.102 42.6334 40.6826 40.1567 40.7335 37.641C40.7844 35.1253 40.3046 32.6271 39.3253 30.3093C38.3459 27.9915 36.8891 25.9061 35.0498 24.1891C34.8763 24.0276 34.7741 23.8038 34.7656 23.5669C34.7572 23.3301 34.8432 23.0995 35.0047 22.9261C35.1662 22.7526 35.39 22.6504 35.6268 22.6419C35.8637 22.6335 36.0942 22.7194 36.2677 22.8809C39.1582 25.5769 41.1702 29.0807 42.0418 32.936C42.9133 36.7914 42.6041 40.8199 41.1543 44.4971C39.7046 48.1742 37.1814 51.3298 33.9132 53.5531C30.6451 55.7763 26.7833 56.9642 22.8307 56.9622Z" fill="white"/>
    <path d="M22.8306 52.2273C19.2486 52.2262 15.7866 50.9367 13.0767 48.5942C12.8975 48.4392 12.7871 48.2194 12.7699 47.983C12.7528 47.7466 12.8302 47.5131 12.9852 47.3339C13.1401 47.1546 13.36 47.0442 13.5964 47.0271C13.8327 47.0099 14.0662 47.0873 14.2455 47.2423C16.8159 49.4748 20.1518 50.6236 23.5518 50.4472C26.9518 50.2708 30.151 48.7829 32.4765 46.2964C34.8021 43.8098 36.0729 40.5184 36.0217 37.1142C35.9705 33.7101 34.6013 30.4583 32.202 28.0429C32.1172 27.9599 32.0499 27.861 32.0038 27.7517C31.9576 27.6425 31.9337 27.5251 31.9334 27.4066C31.9331 27.288 31.9564 27.1705 32.002 27.0611C32.0475 26.9516 32.1144 26.8523 32.1987 26.7689C32.2831 26.6855 32.3831 26.6198 32.4931 26.5755C32.6031 26.5312 32.7208 26.5092 32.8394 26.5108C32.9579 26.5125 33.075 26.5377 33.1837 26.585C33.2924 26.6324 33.3906 26.7009 33.4726 26.7866C36.2445 29.5697 37.7976 33.3398 37.7902 37.2677C37.7857 41.2339 36.2081 45.0363 33.4036 47.8408C30.5992 50.6453 26.7967 52.2228 22.8306 52.2273Z" fill="white"/>
    <path d="M30.6721 28.8026C29.4982 28.8028 28.3507 28.4549 27.3746 27.8028C26.3985 27.1508 25.6377 26.224 25.1884 25.1395C24.739 24.0551 24.6214 22.8618 24.8503 21.7104C25.0792 20.5591 25.6443 19.5016 26.4743 18.6715C27.3043 17.8414 28.3618 17.276 29.513 17.047C30.6643 16.8179 31.8577 16.9354 32.9422 17.3845C34.0267 17.8337 34.9536 18.5944 35.6058 19.5704C36.258 20.5464 36.6061 21.6939 36.6061 22.8677C36.6044 24.4411 35.9787 25.9496 34.8663 27.0622C33.7538 28.1748 32.2455 28.8007 30.6721 28.8026ZM30.6721 18.7208C29.8517 18.7207 29.0496 18.9638 28.3674 19.4195C27.6851 19.8752 27.1534 20.523 26.8393 21.2809C26.5253 22.0389 26.443 22.8729 26.6031 23.6776C26.7631 24.4823 27.1581 25.2214 27.7383 25.8016C28.3184 26.3817 29.0575 26.7767 29.8622 26.9368C30.6669 27.0968 31.501 27.0146 32.2589 26.7005C33.0168 26.3865 33.6646 25.8547 34.1203 25.1725C34.576 24.4902 34.8192 23.6882 34.819 22.8677C34.8176 21.7683 34.3802 20.7144 33.6028 19.937C32.8254 19.1596 31.7715 18.7222 30.6721 18.7208Z" fill="white"/>
    <path d="M30.673 25.7457C30.1038 25.7457 29.5473 25.5769 29.074 25.2606C28.6007 24.9444 28.2318 24.4949 28.014 23.969C27.7962 23.4431 27.7392 22.8644 27.8502 22.3061C27.9613 21.7478 28.2354 21.235 28.6379 20.8325C29.0404 20.43 29.5532 20.1559 30.1115 20.0448C30.6698 19.9338 31.2485 19.9907 31.7744 20.2086C32.3003 20.4264 32.7498 20.7953 33.066 21.2686C33.3823 21.7419 33.5511 22.2984 33.5511 22.8676C33.5504 23.6307 33.2469 24.3623 32.7073 24.9019C32.1677 25.4415 31.4361 25.745 30.673 25.7457ZM30.673 21.7766C30.4572 21.7766 30.2463 21.8406 30.0669 21.9604C29.8875 22.0803 29.7476 22.2507 29.665 22.4501C29.5825 22.6494 29.5609 22.8688 29.603 23.0804C29.6451 23.2921 29.749 23.4865 29.9015 23.639C30.0541 23.7916 30.2485 23.8955 30.4602 23.9376C30.6718 23.9797 30.8912 23.9581 31.0905 23.8755C31.2899 23.793 31.4603 23.6531 31.5801 23.4737C31.7 23.2943 31.764 23.0834 31.764 22.8676C31.7638 22.5783 31.6488 22.3009 31.4442 22.0964C31.2396 21.8918 30.9623 21.7768 30.673 21.7766Z" fill="white"/>
    <path d="M20.9645 33.3248H20.9359C20.8183 33.3214 20.7024 33.2948 20.5951 33.2465C20.4878 33.1982 20.391 33.1292 20.3104 33.0434L11.737 23.89C11.5752 23.717 11.4887 23.4868 11.4966 23.25C11.5045 23.0133 11.606 22.7893 11.779 22.6274L33.6036 2.17796C33.7762 2.0161 34.006 1.92934 34.2425 1.93671C34.4791 1.94408 34.703 2.04498 34.8652 2.21727L43.4387 11.3707C43.519 11.4564 43.5815 11.557 43.6229 11.6669C43.6642 11.7768 43.6835 11.8938 43.6796 12.0111C43.6757 12.1284 43.6487 12.2438 43.6001 12.3507C43.5516 12.4576 43.4825 12.5539 43.3967 12.6341L35.1762 20.3337C35.0905 20.414 34.9899 20.4766 34.8801 20.518C34.7702 20.5593 34.6533 20.5787 34.536 20.5748C34.4186 20.571 34.3032 20.5441 34.1963 20.4957C34.0893 20.4473 33.993 20.3783 33.9127 20.2926C33.8325 20.207 33.7699 20.1063 33.7285 19.9965C33.6871 19.8866 33.6678 19.7697 33.6716 19.6524C33.6754 19.535 33.7023 19.4196 33.7507 19.3127C33.7992 19.2058 33.8682 19.1094 33.9538 19.0292L41.5239 11.9398L34.1745 4.09102L13.6518 23.3208L21.002 31.1705L26.6313 25.8987C26.7169 25.8184 26.8175 25.7558 26.9273 25.7144C27.0371 25.673 27.154 25.6536 27.2712 25.6574C27.3885 25.6612 27.5039 25.688 27.6108 25.7364C27.7177 25.7848 27.8141 25.8537 27.8943 25.9393C27.9746 26.0249 28.0372 26.1255 28.0786 26.2353C28.12 26.3451 28.1394 26.462 28.1356 26.5792C28.1318 26.6965 28.105 26.8119 28.0566 26.9188C28.0082 27.0257 27.9393 27.1221 27.8537 27.2023L21.5721 33.0898C21.4064 33.2418 21.1894 33.3258 20.9645 33.3248Z" fill="white"/>
    <path d="M40.9072 10.8648C40.7849 10.8647 40.6639 10.8395 40.5517 10.7908C40.4395 10.7421 40.3385 10.6709 40.255 10.5815L35.4468 5.44993C35.3665 5.36421 35.3038 5.26348 35.2624 5.15351C35.221 5.04354 35.2017 4.92648 35.2056 4.80904C35.2095 4.6916 35.2365 4.57608 35.2851 4.46909C35.3337 4.36211 35.4029 4.26576 35.4888 4.18557L38.4295 1.42991C38.761 1.11966 39.2022 0.953691 39.656 0.968434C40.1099 0.983177 40.5393 1.17743 40.8501 1.50854L44.5386 5.44546C44.8485 5.77726 45.0141 6.21842 44.9992 6.67219C44.9843 7.12597 44.7901 7.55531 44.459 7.86605L41.5157 10.6235C41.3507 10.778 41.1333 10.8642 40.9072 10.8648ZM37.3626 4.87806L40.9483 8.70597L43.1822 6.61242L39.5964 2.78719L37.3626 4.87806Z" fill="white"/>
    <path d="M14.3339 35.4593H14.2758C14.0512 35.4533 13.8301 35.4029 13.6252 35.3109C13.4202 35.2188 13.2356 35.087 13.082 34.9231L9.39439 30.9862C9.08392 30.6548 8.9178 30.2136 8.93254 29.7597C8.94729 29.3057 9.1417 28.8763 9.47302 28.5656L13.661 24.6421C13.7467 24.5618 13.8473 24.4992 13.9571 24.4578C14.067 24.4164 14.1839 24.397 14.3013 24.4009C14.4186 24.4047 14.534 24.4316 14.641 24.48C14.7479 24.5285 14.8442 24.5975 14.9245 24.6832L19.7326 29.8148C19.8128 29.9005 19.8754 30.0012 19.9167 30.1111C19.9581 30.2209 19.9773 30.3379 19.9734 30.4552C19.9695 30.5726 19.9425 30.688 19.894 30.7949C19.8455 30.9018 19.7764 30.9981 19.6906 31.0783L15.5026 35.0027C15.1854 35.2981 14.7674 35.4615 14.3339 35.4593ZM10.749 29.8139L14.3356 33.6409L17.8204 30.3795L14.2347 26.5516L10.749 29.8139Z" fill="white"/>
</svg>
