<svg width="59" height="59" viewBox="0 0 59 59" fill="none" xmlns="http://www.w3.org/2000/svg">
    <path d="M57.2702 14.0213C56.5068 14.0213 55.8085 13.5119 55.6017 12.7396L53.2185 3.84581L44.3247 6.22895C43.4023 6.47625 42.4548 5.92889 42.2078 5.00679C41.9607 4.08469 42.5078 3.1369 43.4299 2.88984L53.9934 0.059358C54.9158 -0.187818 55.8633 0.359541 56.1103 1.28152L58.9408 11.845C59.1879 12.7671 58.6407 13.7149 57.7186 13.9619C57.5687 14.002 57.4182 14.0213 57.2702 14.0213Z" fill="#2B51B5"/>
    <path d="M57.271 58.9997H1.7285C0.773908 58.9997 0 58.2258 0 57.2712C0 56.3166 0.773908 55.5427 1.7285 55.5427H57.271C58.2256 55.5427 58.9995 56.3166 58.9995 57.2712C58.9995 58.2258 58.2256 58.9997 57.271 58.9997Z" fill="#2B51B5"/>
    <path d="M12.2148 58.9999H5.30077C4.34617 58.9999 3.57227 58.2259 3.57227 57.2714V44.5957C3.57227 43.0072 4.86461 41.7148 6.4531 41.7148H11.0624C12.6509 41.7148 13.9433 43.0072 13.9433 44.5957V57.2714C13.9433 58.2259 13.1694 58.9999 12.2148 58.9999ZM7.02927 55.5429H10.4863V45.1718H7.02927V55.5429ZM11.0624 45.1718H11.0636H11.0624Z" fill="#2B51B5"/>
    <path d="M26.0429 59.0001H19.1289C18.1743 59.0001 17.4004 58.2262 17.4004 57.2716V40.4475C17.4004 38.859 18.6927 37.5667 20.2812 37.5667H24.8906C26.4791 37.5667 27.7714 38.859 27.7714 40.4475V57.2716C27.7714 58.2262 26.9975 59.0001 26.0429 59.0001ZM20.8574 55.5431H24.3144V41.0237H20.8574V55.5431ZM24.8906 41.0237H24.8917H24.8906Z" fill="#2B51B5"/>
    <path d="M39.871 59H32.957C32.0024 59 31.2285 58.2261 31.2285 57.2715V34.1096C31.2285 32.5211 32.5209 31.2288 34.1094 31.2288H38.7187C40.3072 31.2288 41.5995 32.5211 41.5995 34.1096V57.2715C41.5995 58.2261 40.8256 59 39.871 59ZM34.6855 55.543H38.1425V34.6858H34.6855V55.543ZM38.7187 34.6858H38.7198H38.7187Z" fill="#2B51B5"/>
    <path d="M53.6972 58.9999H46.7832C45.8286 58.9999 45.0547 58.226 45.0547 57.2714V22.5862C45.0547 20.9977 46.347 19.7053 47.9355 19.7053H52.5449C54.1334 19.7053 55.4257 20.9977 55.4257 22.5862V57.2714C55.4257 58.226 54.6518 58.9999 53.6972 58.9999ZM48.5117 55.5429H51.9687V23.1623H48.5117V55.5429ZM52.5449 23.1623H52.546H52.5449Z" fill="#2B51B5"/>
    <path d="M1.7285 37.1417C0.773908 37.1417 0 36.3678 0 35.4132C0 34.4586 0.773908 33.6847 1.7285 33.6847C11.8928 33.6847 22.9596 29.9834 32.89 23.2627C42.0259 17.0798 49.3056 8.9743 52.8626 1.02446C53.2526 0.153066 54.2751 -0.237345 55.1463 0.15272C56.0177 0.542555 56.408 1.56502 56.0181 2.43642C52.2055 10.9576 44.4818 19.592 34.8277 26.1256C24.3312 33.2294 12.5762 37.1417 1.7285 37.1417Z" fill="#2B51B5"/>
</svg>
