<svg width="71" height="49" viewBox="0 0 71 49" fill="none" xmlns="http://www.w3.org/2000/svg">
    <path d="M27.5859 12.0023C25.5407 9.54896 21.8788 8.86029 19.1099 10.3737C16.9544 11.5703 15.6064 13.8386 15.6064 16.3035C15.6064 17.1178 14.9481 17.7819 14.1292 17.7819C13.3068 17.7819 12.6486 17.1178 12.6486 16.3035C12.6486 12.7673 14.5763 9.50079 17.6809 7.78508C21.6642 5.59303 26.9269 6.58115 29.8566 10.1082C30.38 10.7383 30.2967 11.6686 29.6689 12.1873C29.0396 12.7087 28.1047 12.6301 27.5859 12.0023ZM70.3335 26.7543C70.3335 27.5709 69.6715 28.2303 68.8548 28.2303H57.2838C50.2321 38.0463 35.3452 47.4797 34.5683 47.9726C34.3255 48.121 34.0565 48.198 33.7821 48.198C33.5108 48.198 33.2341 48.1256 32.9971 47.9726C32.2182 47.4801 17.2288 37.9928 10.1856 28.0731H1.47716C0.660543 28.0731 0 27.4091 0 26.5971C0 25.7758 0.65823 25.1137 1.47716 25.1137H8.37856C7.67948 23.7915 7.12646 22.475 6.83781 21.1913C6.34028 19.6941 6.06936 18.0023 6.06936 16.3031C6.06936 10.3733 9.29616 4.90089 14.4961 2.03211C16.904 0.699466 19.6271 0 22.3633 0C26.6622 0 30.7407 1.68142 33.7798 4.66388C36.815 1.68142 40.8854 0 45.1844 0C47.9325 0 50.6498 0.699081 53.0527 2.03211C58.2576 4.90937 61.4867 10.3779 61.4867 16.3031C61.4867 18.0023 61.2143 19.6895 60.684 21.3308C60.3953 22.6203 59.8346 23.9452 59.1209 25.2829H68.8598C69.6672 25.2783 70.3335 25.9404 70.3335 26.7543ZM11.7861 25.1137H26.0571C26.5523 25.1137 27.0113 25.365 27.2904 25.7758L30.4135 30.4528L40.0877 15.7532C40.3952 15.285 40.9444 15.0306 41.4978 15.095C42.0539 15.157 42.5256 15.5351 42.7133 16.0584L46.0692 25.2783H55.6902C56.7134 23.6616 57.488 22.0715 57.826 20.5497C58.2996 19.0702 58.5251 17.6901 58.5251 16.2989C58.5251 11.4423 55.8779 6.96383 51.621 4.61609C49.6594 3.52739 47.43 2.95818 45.1797 2.95818C41.2022 2.95818 37.459 4.71937 34.9167 7.79009C34.6349 8.12922 34.2195 8.32615 33.7771 8.32615C33.3381 8.32615 32.9219 8.12922 32.6391 7.79009C30.0871 4.72207 26.3385 2.95818 22.3586 2.95818C20.1115 2.95818 17.8917 3.52739 15.9216 4.61609C11.6659 6.96845 9.02254 11.445 9.02254 16.2989C9.02254 17.6859 9.24567 19.0656 9.68077 20.4009C10.0249 21.9274 10.7841 23.5148 11.7861 25.1137ZM53.5456 28.2399H45.0321C44.4128 28.2399 43.854 27.8457 43.6428 27.2638L40.9394 19.8436L31.6633 33.9517C31.39 34.3644 30.923 34.6134 30.4328 34.618C30.4281 34.618 30.4281 34.618 30.4254 34.618C29.9341 34.618 29.4716 34.3667 29.1961 33.9609L25.2713 28.08H13.898C20.0544 35.6832 30.7962 43 33.7798 44.957C36.7507 43.0046 47.3953 35.7541 53.5456 28.2399Z" fill="#2B51B5"/>
</svg>
