<svg width="65" height="65" viewBox="0 0 65 65" fill="none" xmlns="http://www.w3.org/2000/svg">
    <path d="M61.7613 32.4781L58.8123 32.1088C57.9158 29.9153 56.6277 27.8864 55.0268 26.1309L57.195 16.9453C57.2842 16.5677 57.1958 16.1703 56.9551 15.8661C56.7144 15.5619 56.3479 15.3844 55.96 15.3842L55.6827 15.384C55.681 15.384 55.6799 15.384 55.6782 15.384C52.079 15.384 48.8352 17.6486 47.5593 20.9702C46.6569 20.6116 45.7293 20.3162 44.7832 20.0923C44.1008 19.931 43.417 20.3531 43.2556 21.0356C43.0942 21.718 43.5165 22.4019 44.1989 22.5632C47.4305 23.3276 50.3132 24.9618 52.5854 27.2295C52.6684 27.3511 52.7719 27.4588 52.8935 27.5459C54.5499 29.2844 55.8591 31.3702 56.7084 33.7077C56.8711 34.1556 57.2711 34.4747 57.7439 34.5339L61.4461 34.9974C62.0249 35.0699 62.4612 35.5644 62.4612 36.1476V42.5482C62.4612 43.1314 62.0247 43.6259 61.4461 43.6984L58.0154 44.1279C57.522 44.1896 57.11 44.5337 56.9615 45.0084C55.9437 48.2603 54.0099 51.1359 51.3689 53.3241C51.0778 53.5653 50.9093 53.9237 50.9093 54.3016V61.3188C50.9093 61.9487 50.397 62.461 49.7673 62.461H42.4031C41.7733 62.461 41.2609 61.9487 41.2609 61.3188V58.6445C41.2609 57.9433 40.6924 57.3749 39.9914 57.3749H29.3255C28.6245 57.3749 28.056 57.9433 28.056 58.6445V61.3188C28.056 61.9487 27.5436 62.461 26.9138 62.461H19.5495C18.9198 62.461 18.4074 61.9487 18.4074 61.3188V56.364C18.4074 55.8985 18.1526 55.4704 17.7436 55.2483C12.0457 52.1547 8.50586 46.2094 8.50586 39.7325C8.50586 30.0043 16.4202 22.09 26.1484 22.09H27.7393C28.4403 22.09 29.0088 21.5216 29.0088 20.8204C29.0088 20.1193 28.4403 19.5509 27.7393 19.5509H26.1484C16.7244 19.5509 8.78922 26.0442 6.5796 34.7916H5.64941C3.93428 34.7916 2.53906 33.3963 2.53906 31.6813C2.53906 29.9663 3.93428 28.5709 5.64941 28.5709C6.35045 28.5709 6.91895 28.0025 6.91895 27.3014C6.91895 26.6002 6.35045 26.0318 5.64941 26.0318C2.53437 26.0318 0 28.5661 0 31.6813C0 34.7964 2.53437 37.3307 5.64941 37.3307H6.11038C6.01644 38.1185 5.9668 38.9197 5.9668 39.7325C5.9668 46.8862 9.74162 53.4729 15.8683 57.1031V61.319C15.8683 63.3488 17.5197 65.0002 19.5494 65.0002H26.9136C28.9434 65.0002 30.5948 63.3488 30.5948 61.319V59.9141H38.7216V61.319C38.7216 63.3488 40.373 65.0002 42.4029 65.0002H49.767C51.7967 65.0002 53.4482 63.3488 53.4482 61.319V54.887C56.0258 52.62 57.971 49.7604 59.1222 46.5482L61.7612 46.2178C63.6076 45.9867 65 44.4091 65 42.5482V36.1476C65 34.2868 63.6077 32.7092 61.7613 32.4781ZM52.8948 24.1107C51.9477 23.336 50.9333 22.6497 49.8664 22.0604C50.5678 20.045 52.2787 18.5454 54.3189 18.0772L52.8948 24.1107Z" fill="white"/>
    <path d="M50.5361 32.2372C50.3001 32.0011 49.9726 31.8652 49.6387 31.8652C49.3048 31.8652 48.9772 32.0011 48.7411 32.2372C48.505 32.4733 48.3691 32.8009 48.3691 33.1348C48.3691 33.4687 48.5049 33.7962 48.7411 34.0323C48.9774 34.2685 49.3048 34.4043 49.6387 34.4043C49.9726 34.4043 50.3001 34.2685 50.5361 34.0323C50.7722 33.7962 50.9082 33.4687 50.9082 33.1348C50.9082 32.8009 50.7722 32.4733 50.5361 32.2372Z" fill="white"/>
    <path d="M37.2266 7.40552C36.5255 7.40552 35.957 7.97389 35.957 8.67505V13.7106C35.957 14.4118 36.5255 14.9802 37.2266 14.9802C37.9276 14.9802 38.4961 14.4118 38.4961 13.7106V8.67505C38.4961 7.97401 37.9277 7.40552 37.2266 7.40552Z" fill="white"/>
    <path d="M38.124 3.17129C37.888 2.93516 37.5604 2.79932 37.2266 2.79932C36.8925 2.79932 36.5651 2.93516 36.329 3.17129C36.0929 3.40742 35.957 3.73496 35.957 4.06885C35.957 4.404 36.0927 4.73027 36.329 4.96641C36.5651 5.20254 36.8925 5.33838 37.2266 5.33838C37.5604 5.33838 37.888 5.20254 38.124 4.96641C38.3601 4.73027 38.4961 4.40273 38.4961 4.06885C38.4961 3.73496 38.3601 3.40869 38.124 3.17129Z" fill="white"/>
    <path d="M26.9141 0C26.213 0 25.6445 0.568369 25.6445 1.26953V3.42773C25.6445 4.1289 26.213 4.69727 26.9141 4.69727C27.6151 4.69727 28.1836 4.1289 28.1836 3.42773V1.26953C28.1836 0.568369 27.6152 0 26.9141 0Z" fill="white"/>
    <path d="M14.4648 39.7324C14.4648 39.0313 13.8963 38.4629 13.1953 38.4629C12.4943 38.4629 11.9258 39.0313 11.9258 39.7324L11.9259 39.7998C11.9302 40.4982 12.4978 41.0615 13.1953 41.0615C13.1979 41.0615 13.2005 41.0615 13.2033 41.0615C13.9043 41.0571 14.4693 40.4851 14.465 39.784L14.4648 39.7324Z" fill="white"/>
    <path d="M20.085 49.7212C17.8782 48.3782 16.1556 46.3148 15.2347 43.9112C14.9837 43.2563 14.2495 42.9289 13.5949 43.18C12.9402 43.4308 12.6128 44.1649 12.8637 44.8197C13.9847 47.7456 16.0805 50.2566 18.7652 51.8902C18.9714 52.0157 19.199 52.0755 19.4239 52.0755C19.8523 52.0755 20.2706 51.8585 20.5097 51.4657C20.8742 50.8667 20.6839 50.0857 20.085 49.7212Z" fill="white"/>
    <path d="M26.9141 6.1001C23.974 6.1001 21.582 8.49202 21.582 11.4321C21.582 14.3722 23.974 16.7642 26.9141 16.7642C29.8542 16.7642 32.2461 14.3722 32.2461 11.4321C32.2461 8.49202 29.8542 6.1001 26.9141 6.1001ZM26.9141 14.2251C25.374 14.2251 24.1211 12.9722 24.1211 11.4321C24.1211 9.89206 25.374 8.63916 26.9141 8.63916C28.4541 8.63916 29.707 9.89206 29.707 11.4321C29.707 12.9722 28.4541 14.2251 26.9141 14.2251Z" fill="white"/>
    <path d="M42.9102 26.9141H41.7676C42.2696 26.1012 42.56 25.1446 42.56 24.1211C42.56 21.181 40.1681 18.7891 37.228 18.7891C34.2879 18.7891 31.896 21.181 31.896 24.1211C31.8958 25.1446 32.1863 26.1012 32.6883 26.9141H26.4062C25.7052 26.9141 25.1367 27.4824 25.1367 28.1836C25.1367 28.8848 25.7052 29.4531 26.4062 29.4531H42.9102C43.6112 29.4531 44.1797 28.8848 44.1797 28.1836C44.1797 27.4824 43.6113 26.9141 42.9102 26.9141ZM37.228 26.9141C35.6879 26.9141 34.435 25.6612 34.435 24.1211C34.435 22.581 35.6879 21.3281 37.228 21.3281C38.7681 21.3281 40.021 22.581 40.021 24.1211C40.021 25.6612 38.7679 26.9141 37.228 26.9141Z" fill="white"/>
</svg>
